<?xml version="1.0" encoding="utf-8"?>
<!-- Generator: Adobe Illustrator 18.1.1, SVG Export Plug-In . SVG Version: 6.00 Build 0)  -->
<svg version="1.1" id="Layer_1" xmlns="http://www.w3.org/2000/svg" xmlns:xlink="http://www.w3.org/1999/xlink" x="0px" y="0px"
	 viewBox="0 0 595.3 841.9" enable-background="new 0 0 595.3 841.9" xml:space="preserve">
<rect x="435.9" y="353" fill="none" stroke="#700068" stroke-miterlimit="10" width="79.7" height="98.4"/>
<rect x="435.9" y="510" fill="none" stroke="#700068" stroke-miterlimit="10" width="79.7" height="98.4"/>
<linearGradient id="SVGID_1_" gradientUnits="userSpaceOnUse" x1="-22.5" y1="-806.75" x2="-22.5" y2="-812.75" gradientTransform="matrix(23.4362 0 0 -23.4362 0 -18377.0156)">
	<stop  offset="0" style="stop-color:#DB6D17"/>
	<stop  offset="1" style="stop-color:#BF3B08"/>
</linearGradient>
<path fill="url(#SVGID_1_)" d="M-585.9,531.1h117.2v140.6h-117.2V531.1z"/>
<linearGradient id="SVGID_2_" gradientUnits="userSpaceOnUse" x1="-22.5" y1="-807.75" x2="-22.5" y2="-811.75" gradientTransform="matrix(23.4362 0 0 -23.4362 0 -18377.0156)">
	<stop  offset="0" style="stop-color:#F6A55E"/>
	<stop  offset="1" style="stop-color:#EA5B03"/>
</linearGradient>
<path fill="url(#SVGID_2_)" d="M-562.5,554.5h70.3v93.7h-70.3V554.5z"/>
<linearGradient id="SVGID_3_" gradientUnits="userSpaceOnUse" x1="-22.5" y1="-808.75" x2="-22.5" y2="-810.75" gradientTransform="matrix(23.4362 0 0 -23.4362 0 -18377.0156)">
	<stop  offset="0" style="stop-color:#F17219"/>
	<stop  offset="1" style="stop-color:#EA5B03"/>
</linearGradient>
<path fill="url(#SVGID_3_)" d="M-539,578h23.4v46.9H-539V578z"/>
<linearGradient id="SVGID_4_" gradientUnits="userSpaceOnUse" x1="-22.5" y1="-799.75" x2="-22.5" y2="-805.75" gradientTransform="matrix(23.4362 0 0 -23.4362 0 -18377.0156)">
	<stop  offset="0" style="stop-color:#90C50E"/>
	<stop  offset="1" style="stop-color:#70A034"/>
</linearGradient>
<path fill="url(#SVGID_4_)" d="M-585.9,367h117.2v140.6h-117.2V367z"/>
<linearGradient id="SVGID_5_" gradientUnits="userSpaceOnUse" x1="-22.5" y1="-800.75" x2="-22.5" y2="-804.75" gradientTransform="matrix(23.4362 0 0 -23.4362 0 -18377.0156)">
	<stop  offset="0" style="stop-color:#D9F991"/>
	<stop  offset="0.239" style="stop-color:#D7F88D"/>
	<stop  offset="0.45" style="stop-color:#D1F383"/>
	<stop  offset="0.651" style="stop-color:#C6EC71"/>
	<stop  offset="0.844" style="stop-color:#B7E257"/>
	<stop  offset="1" style="stop-color:#A8D73D"/>
</linearGradient>
<path fill="url(#SVGID_5_)" d="M-562.5,390.5h70.3v93.7h-70.3V390.5z"/>
<linearGradient id="SVGID_6_" gradientUnits="userSpaceOnUse" x1="-22.5" y1="-801.75" x2="-22.5" y2="-803.75" gradientTransform="matrix(23.4362 0 0 -23.4362 0 -18377.0156)">
	<stop  offset="0" style="stop-color:#B3E810"/>
	<stop  offset="1" style="stop-color:#90C60D"/>
</linearGradient>
<path fill="url(#SVGID_6_)" d="M-539,413.9h23.4v46.9H-539V413.9z"/>
<linearGradient id="SVGID_7_" gradientUnits="userSpaceOnUse" x1="-31.5" y1="-790.75" x2="-31.5" y2="-814.75" gradientTransform="matrix(23.4362 0 0 -23.4362 0 -18377.0156)">
	<stop  offset="0" style="stop-color:#95BFF8"/>
	<stop  offset="0.557" style="stop-color:#84ADEF"/>
	<stop  offset="1" style="stop-color:#7CA4EB"/>
</linearGradient>
<path fill="url(#SVGID_7_)" d="M-937.4,156.1H-539v562.5h-398.4V156.1z"/>
<linearGradient id="SVGID_8_" gradientUnits="userSpaceOnUse" x1="-31.5" y1="-791.75" x2="-31.5" y2="-813.75" gradientTransform="matrix(23.4362 0 0 -23.4362 0 -18377.0156)">
	<stop  offset="0" style="stop-color:#E7F4FC"/>
	<stop  offset="1" style="stop-color:#DEEFFC"/>
</linearGradient>
<path fill="url(#SVGID_8_)" d="M-914,179.6h351.5v515.6H-914V179.6z"/>
<linearGradient id="SVGID_9_" gradientUnits="userSpaceOnUse" x1="-31.5" y1="-792.75" x2="-31.5" y2="-812.75" gradientTransform="matrix(23.4362 0 0 -23.4362 0 -18377.0156)">
	<stop  offset="0" style="stop-color:#CEE9F9"/>
	<stop  offset="1" style="stop-color:#BBDFF8"/>
</linearGradient>
<path fill="url(#SVGID_9_)" d="M-890.6,203h304.7v468.7h-304.7V203z"/>
<linearGradient id="SVGID_10_" gradientUnits="userSpaceOnUse" x1="-22.5" y1="-792.75" x2="-22.5" y2="-798.75" gradientTransform="matrix(23.4362 0 0 -23.4362 0 -18377.0156)">
	<stop  offset="0" style="stop-color:#76A1F0"/>
	<stop  offset="1" style="stop-color:#6B90D5"/>
</linearGradient>
<path fill="url(#SVGID_10_)" d="M-585.9,203h117.2v140.6h-117.2V203z"/>
<linearGradient id="SVGID_11_" gradientUnits="userSpaceOnUse" x1="-22.5" y1="-793.75" x2="-22.5" y2="-797.75" gradientTransform="matrix(23.4362 0 0 -23.4362 0 -18377.0156)">
	<stop  offset="0" style="stop-color:#BBE0F7"/>
	<stop  offset="1" style="stop-color:#82B4FB"/>
</linearGradient>
<path fill="url(#SVGID_11_)" d="M-562.5,226.4h70.3v93.7h-70.3V226.4z"/>
<linearGradient id="SVGID_12_" gradientUnits="userSpaceOnUse" x1="-22.5" y1="-794.75" x2="-22.5" y2="-796.75" gradientTransform="matrix(23.4362 0 0 -23.4362 0 -18377.0156)">
	<stop  offset="0" style="stop-color:#95BFF8"/>
	<stop  offset="0.557" style="stop-color:#84ADEF"/>
	<stop  offset="1" style="stop-color:#7CA4EB"/>
</linearGradient>
<path fill="url(#SVGID_12_)" d="M-539,249.9h23.4v46.9H-539V249.9z"/>
<linearGradient id="SVGID_13_" gradientUnits="userSpaceOnUse" x1="-27.55" y1="-801.479" x2="-27.55" y2="-806.72" gradientTransform="matrix(23.4362 0 0 -23.4362 0 -18377.0156)">
	<stop  offset="0" style="stop-color:#76A1F0"/>
	<stop  offset="5.500000e-002" style="stop-color:#739DE9"/>
	<stop  offset="0.204" style="stop-color:#6F95DE"/>
	<stop  offset="0.415" style="stop-color:#6C91D7"/>
	<stop  offset="1" style="stop-color:#6B90D5"/>
</linearGradient>
<path fill="url(#SVGID_13_)" d="M-639.8,512.3c-16.4,11.7-28.1,18.7-39.8,18.7c-7,0-11.7-2.3-16.4-7c-4.7-4.7-7-9.4-7-16.4
	c0-9.4,4.7-16.4,11.7-23.4c7-7,23.4-16.4,51.6-28.1v-11.7c0-9.4,0-14.1-2.3-16.4c0-2.3-2.3-4.7-4.7-7c-2.3-2.3-4.7-2.3-9.4-2.3
	c-4.7,0-9.4,2.3-14.1,4.7c-2.3,2.3-2.3,2.3-2.3,4.7c0,2.3,0,4.7,4.7,7c2.3,4.7,4.7,7,4.7,9.4c0,4.7-2.3,7-4.7,9.4
	c-2.3,2.3-7,4.7-11.7,4.7s-9.4-2.3-14.1-4.7c-4.7-2.3-4.7-7-4.7-11.7c0-7,2.3-11.7,7-16.4c4.7-4.7,11.7-9.4,21.1-11.7
	c9.4-2.3,16.4-4.7,25.8-4.7c11.7,0,21.1,2.3,25.8,7c7,4.7,11.7,9.4,11.7,16.4c2.3,4.7,2.3,11.7,2.3,23.4V510c0,2.3,0,2.3,2.3,2.3
	h2.3c2.3,0,4.7-2.3,7-4.7l4.7,2.3c-4.7,7-9.4,11.7-14.1,14.1s-9.4,4.7-16.4,4.7s-11.7-2.3-16.4-4.7
	C-637.5,521.7-639.8,517-639.8,512.3z M-639.8,503v-39.8c-9.4,7-18.7,11.7-23.4,18.7c-2.3,4.7-4.7,9.4-4.7,14.1s2.3,7,4.7,9.4
	s4.7,2.3,9.4,2.3C-651.5,510-646.8,507.7-639.8,503z"/>
<linearGradient id="SVGID_14_" gradientUnits="userSpaceOnUse" x1="-33.7" y1="-799.017" x2="-33.7" y2="-806.4509" gradientTransform="matrix(23.4362 0 0 -23.4362 0 -18377.0156)">
	<stop  offset="0" style="stop-color:#76A1F0"/>
	<stop  offset="5.500000e-002" style="stop-color:#739DE9"/>
	<stop  offset="0.204" style="stop-color:#6F95DE"/>
	<stop  offset="0.415" style="stop-color:#6C91D7"/>
	<stop  offset="1" style="stop-color:#6B90D5"/>
</linearGradient>
<path fill="url(#SVGID_14_)" d="M-773.4,474.8h-60.9l-7,16.4c-2.3,4.7-4.7,9.4-4.7,14.1c0,4.7,2.3,9.4,4.7,11.7
	c2.3,2.3,7,2.3,16.4,2.3v4.7h-53.9v-4.7c7,0,11.7-2.3,14.1-7c4.7-4.7,9.4-11.7,14.1-25.8l60.9-135.9h2.3l60.9,140.6
	c4.7,14.1,11.7,21.1,14.1,25.8c2.3,2.3,7,4.7,11.7,4.7v4.7h-79.7v-4.7h2.3c7,0,11.7,0,14.1-2.3c2.3-2.3,2.3-2.3,2.3-4.7V510
	l-4.7-9.4C-766.4,500.6-773.4,474.8-773.4,474.8z M-778.1,465.5l-25.8-58.6l-25.8,58.6H-778.1z"/>
<rect x="79.7" y="163.1" fill="#700068" width="396.1" height="496.8"/>
<rect x="435.9" y="188.9" fill="#700068" width="89.1" height="107.8"/>
<text transform="matrix(1 0 0 1 130.9034 484.2229)" fill="#FFFFFF" font-family="'Arial-BoldMT'" font-size="234.3622">Aa</text>
</svg>
