<?xml version="1.0" encoding="utf-8"?>
<!-- Generator: Adobe Illustrator 21.1.0, SVG Export Plug-In . SVG Version: 6.00 Build 0)  -->
<svg version="1.1" id="Layer_1" xmlns="http://www.w3.org/2000/svg" xmlns:xlink="http://www.w3.org/1999/xlink" x="0px" y="0px"
	 viewBox="0 0 24 24" style="enable-background:new 0 0 24 24;" xml:space="preserve">
<style type="text/css">
	.st0{fill:url(#SVGID_1_);}
	.st1{fill:url(#SVGID_2_);}
	.st2{fill:url(#SVGID_3_);}
	.st3{fill:url(#SVGID_4_);}
	.st4{fill:url(#SVGID_5_);}
	.st5{fill:none;}
	.st6{fill:#700068;}
</style>
<linearGradient id="SVGID_1_" gradientUnits="userSpaceOnUse" x1="-19.4" y1="1636" x2="-19.4" y2="1660" gradientTransform="matrix(1 0 0 1 0 -1636)">
	<stop  offset="0" style="stop-color:#95BFF8"/>
	<stop  offset="0.557" style="stop-color:#84ADEF"/>
	<stop  offset="1" style="stop-color:#7CA4EB"/>
</linearGradient>
<path class="st0" d="M-17.4,0h-11.5v24h19V7.9"/>
<linearGradient id="SVGID_2_" gradientUnits="userSpaceOnUse" x1="-19.4" y1="1637" x2="-19.4" y2="1659" gradientTransform="matrix(1 0 0 1 0 -1636)">
	<stop  offset="0" style="stop-color:#E7F4FC"/>
	<stop  offset="1" style="stop-color:#DEEFFC"/>
</linearGradient>
<path class="st1" d="M-27.9,23V1h10.1l6.9,7.3V23"/>
<linearGradient id="SVGID_3_" gradientUnits="userSpaceOnUse" x1="-19.4" y1="1638" x2="-19.4" y2="1658" gradientTransform="matrix(1 0 0 1 0 -1636)">
	<stop  offset="0" style="stop-color:#CEE9F9"/>
	<stop  offset="1" style="stop-color:#BBDFF8"/>
</linearGradient>
<path class="st2" d="M-26.9,22V2h8.6l6.4,6.7V22"/>
<linearGradient id="SVGID_4_" gradientUnits="userSpaceOnUse" x1="-14.65" y1="1636" x2="-14.65" y2="1645.359" gradientTransform="matrix(1 0 0 1 0 -1636)">
	<stop  offset="0" style="stop-color:#95BFF8"/>
	<stop  offset="0.557" style="stop-color:#84ADEF"/>
	<stop  offset="1" style="stop-color:#7CA4EB"/>
</linearGradient>
<path class="st3" d="M-18.9,9c0,0,5.2-1.5,9,0.4V7.9L-17.4,0h-2C-16.8,3.7-18.9,9-18.9,9z"/>
<linearGradient id="SVGID_5_" gradientUnits="userSpaceOnUse" x1="-17.5448" y1="1643.5947" x2="-14.4169" y2="1640.4669" gradientTransform="matrix(1 0 0 1 0 -1636)">
	<stop  offset="0" style="stop-color:#E7F4FC"/>
	<stop  offset="0.518" style="stop-color:#E5F3FC"/>
	<stop  offset="0.705" style="stop-color:#DEF0FB"/>
	<stop  offset="0.837" style="stop-color:#D3EBFA"/>
	<stop  offset="0.872" style="stop-color:#CEE9F9"/>
	<stop  offset="1" style="stop-color:#BDD8F0"/>
</linearGradient>
<path class="st4" d="M-11.4,7.8c-0.9-0.2-2-0.3-3.1-0.3s-2.1,0.1-3,0.3c0.4-1.6,0.7-4.1-0.2-6.4L-11.4,7.8z"/>
<path class="st5" d="M15,8.5c0,0.4-0.3,0.7-0.7,0.7s-0.7-0.3-0.7-0.7V5.1h-0.7v3.5c0,0.7,0.6,1.4,1.4,1.4s1.4-0.6,1.4-1.4V3.9H15
	V8.5z"/>
<path class="st5" d="M13.9,1.7c-0.6,0-1,0.5-1,1v1.1H15V2.7C14.9,2.1,14.5,1.7,13.9,1.7z"/>
<polygon class="st6" points="18,5.1 18,20.1 6,20.1 6,21.5 19.4,21.5 19.4,5.1 "/>
<path class="st6" d="M17.3,3.8h-1.7v4.7c0,0.8-0.6,1.4-1.4,1.4s-1.4-0.6-1.4-1.4V5.1h0.7v3.5c0,0.4,0.3,0.7,0.7,0.7s0.7-0.3,0.7-0.7
	V3.9h-2.1V2.7c0-0.6,0.5-1,1-1c0.6,0,1,0.5,1,1v1.1h0.7V2.7c0-0.9-0.8-1.7-1.7-1.7c-1,0-1.7,0.8-1.7,1.7v1.1H4.6v15.7h12.7V3.8z
	 M13.9,15.9H6V15h7.9V15.9z M13.9,13.8H6v-0.9h7.9V13.8z M13.9,11.6H6v-0.9h7.9V11.6z"/>
</svg>
