<?xml version="1.0" encoding="utf-8"?>
<!-- Generator: Adobe Illustrator 21.1.0, SVG Export Plug-In . SVG Version: 6.00 Build 0)  -->
<svg version="1.1" id="Layer_1" xmlns="http://www.w3.org/2000/svg" xmlns:xlink="http://www.w3.org/1999/xlink" x="0px" y="0px"
	 viewBox="0 0 24 24" style="enable-background:new 0 0 24 24;" xml:space="preserve">
<style type="text/css">
	.st0{fill:url(#SVGID_1_);}
	.st1{fill:url(#SVGID_2_);}
	.st2{fill:url(#SVGID_3_);}
	.st3{fill:url(#SVGID_4_);}
	.st4{fill:url(#SVGID_5_);}
	.st5{fill:url(#SVGID_6_);}
	.st6{fill:#700068;}
</style>
<linearGradient id="SVGID_1_" gradientUnits="userSpaceOnUse" x1="-25.7" y1="-1614.11" x2="-25.7" y2="-1634.11" gradientTransform="matrix(1 0 0 -1 0 -1612.11)">
	<stop  offset="0" style="stop-color:#76A1F0"/>
	<stop  offset="1" style="stop-color:#6B90D5"/>
</linearGradient>
<path class="st0" d="M-15.7,21c0,0.5-0.5,1-1,1h-18c-0.5,0-1-0.5-1-1V3.1c0-0.5,0.5-1.1,1-1.1h4c0.5,0,1.4,0.3,1.8,0.6l0.9,0.7
	c0.5,0.4,1.3,0.7,1.8,0.7h9.5c0.5,0,1,0.5,1,1C-15.7,5-15.7,21-15.7,21z"/>
<linearGradient id="SVGID_2_" gradientUnits="userSpaceOnUse" x1="-25.7" y1="-1615.11" x2="-25.7" y2="-1633.11" gradientTransform="matrix(1 0 0 -1 0 -1612.11)">
	<stop  offset="0" style="stop-color:#BBE0F7"/>
	<stop  offset="1" style="stop-color:#82B4FB"/>
</linearGradient>
<path class="st1" d="M-34.7,21V3.1l0.1-0.1h3.9c0.3,0,0.9,0.2,1.2,0.4l0.9,0.8c0.7,0.4,1.7,0.8,2.4,0.8h9.5v16
	C-16.7,21-34.7,21-34.7,21z"/>
<linearGradient id="SVGID_3_" gradientUnits="userSpaceOnUse" x1="-25.7" y1="-1616.11" x2="-25.7" y2="-1632.11" gradientTransform="matrix(1 0 0 -1 0 -1612.11)">
	<stop  offset="0" style="stop-color:#95BFF8"/>
	<stop  offset="0.557" style="stop-color:#84ADEF"/>
	<stop  offset="1" style="stop-color:#7CA4EB"/>
</linearGradient>
<path class="st2" d="M-33.7,20V4h3c0.1,0,0.5,0.1,0.6,0.2l0.9,0.8c0.8,0.6,2.1,1,3,1h8.5v14H-33.7z"/>
<linearGradient id="SVGID_4_" gradientUnits="userSpaceOnUse" x1="-25.6936" y1="-1619.11" x2="-25.6936" y2="-1634.11" gradientTransform="matrix(1 0 0 -1 0 -1612.11)">
	<stop  offset="0" style="stop-color:#76A1F0"/>
	<stop  offset="1" style="stop-color:#6B90D5"/>
</linearGradient>
<path class="st3" d="M-14.6,21c0,0.5-0.5,1-1.1,1h-20c-0.5,0-1-0.5-1.1-1l-0.8-13c0-0.5,0.4-1,0.9-1h22c0.5,0,1,0.5,0.9,1L-14.6,21z
	"/>
<linearGradient id="SVGID_5_" gradientUnits="userSpaceOnUse" x1="-25.65" y1="-1620.064" x2="-25.65" y2="-1633.11" gradientTransform="matrix(1 0 0 -1 0 -1612.11)">
	<stop  offset="0" style="stop-color:#BBE0F7"/>
	<stop  offset="1" style="stop-color:#82B4FB"/>
</linearGradient>
<path class="st4" d="M-35.7,21l-0.1-0.1L-36.6,8h21.9l-0.9,12.9c0,0,0,0.1-0.1,0.1C-15.7,21-35.7,21-35.7,21z"/>
<linearGradient id="SVGID_6_" gradientUnits="userSpaceOnUse" x1="-25.6" y1="-1621.067" x2="-25.6" y2="-1632.11" gradientTransform="matrix(1 0 0 -1 0 -1612.11)">
	<stop  offset="0" style="stop-color:#95BFF8"/>
	<stop  offset="0.557" style="stop-color:#84ADEF"/>
	<stop  offset="1" style="stop-color:#7CA4EB"/>
</linearGradient>
<path class="st5" d="M-34.8,20l-0.7-11h19.8l-0.8,11"/>
<g>
	<g>
		<path class="st6" d="M21.7,9.2l-2.2,10.1l0,0c0,0.1-0.1,0.2-0.2,0.2H2.8c-0.1,0-0.3-0.1-0.3-0.3c0,0,0,0,0-0.1l2.1-10
			c0-0.1,0.1-0.2,0.2-0.2h16.6C21.6,8.9,21.7,9,21.7,9.2L21.7,9.2L21.7,9.2z M2.5,4.9h4l0,0c0.1,0,0.1,0,0.2,0.1L8,6
			c0.1,0.1,0.2,0.1,0.3,0.1h10.8c0.1,0,0.3,0.1,0.3,0.3v1.8l0,0c0,0.1-0.1,0.3-0.3,0.3H4.7l0,0c-0.2,0-0.4,0.2-0.5,0.4l-1.8,9l0,0
			c0,0,0,0-0.1,0l0,0V5.3l0,0C2.3,5,2.4,4.9,2.5,4.9L2.5,4.9L2.5,4.9z"/>
	</g>
</g>
</svg>
