<?xml version="1.0" encoding="utf-8"?>
<!-- Generator: Adobe Illustrator 18.1.1, SVG Export Plug-In . SVG Version: 6.00 Build 0)  -->
<svg version="1.1" id="Layer_1" xmlns="http://www.w3.org/2000/svg" xmlns:xlink="http://www.w3.org/1999/xlink" x="0px" y="0px"
	 viewBox="0 0 595.3 841.9" enable-background="new 0 0 595.3 841.9" xml:space="preserve">
<linearGradient id="SVGID_1_" gradientUnits="userSpaceOnUse" x1="-18.95" y1="-794.11" x2="-18.95" y2="-818.11" gradientTransform="matrix(24.8033 0 0 -24.8033 0 -19573.2715)">
	<stop  offset="0" style="stop-color:#90C50E"/>
	<stop  offset="1" style="stop-color:#70A034"/>
</linearGradient>
<path fill="url(#SVGID_1_)" d="M-245.6,428.4c24.8,0,42.2,22.3,42.2,22.3c7.4,9.9,17.4,19.8,22.3,19.8c5,0,7.4-12.4,7.4-24.8v-124
	c0-12.4-12.4-24.8-24.8-24.8h-74.4c-12.4,0-24.8-2.5-24.8-7.4c0-5,7.4-17.4,17.4-27.3c0,0,19.8-22.3,19.8-52.1
	c0-47.1-39.7-86.8-86.8-86.8s-86.8,39.7-86.8,86.8c0,29.8,19.8,52.1,19.8,52.1c9.9,9.9,17.4,22.3,17.4,27.3s-12.4,7.4-24.8,7.4
	h-148.8c-12.4,0-24.8,12.4-24.8,24.8v148.8c0,12.4-2.5,24.8-7.4,24.8c-5,0-17.4-7.4-27.3-17.4c0,0-22.3-19.8-52.1-19.8
	c-47.1,0-86.8,39.7-86.8,86.8s39.7,86.8,86.8,86.8c29.8,0,52.1-19.8,52.1-19.8c9.9-9.9,22.3-17.4,27.3-17.4s7.4,12.4,7.4,24.8v74.4
	c0,12.4,12.4,24.8,24.8,24.8h99.2c12.4,0,24.8-2.5,24.8-7.4s-7.4-14.9-17.4-24.8c0,0-14.9-14.9-14.9-39.7c0-34.7,32.2-62,67-62
	s59.5,27.3,59.5,62c0,24.8-22.3,42.2-22.3,42.2c-9.9,7.4-19.8,17.4-19.8,22.3s12.4,7.4,24.8,7.4h173.6c12.4,0,24.8-12.4,24.8-24.8
	V545c0-12.4-2.5-24.8-7.4-24.8s-14.9,7.4-24.8,17.4c0,0-14.9,14.9-39.7,14.9c-34.7,0-62-32.2-62-67S-280.3,428.4-245.6,428.4z"/>
<linearGradient id="SVGID_2_" gradientUnits="userSpaceOnUse" x1="-19" y1="-795.11" x2="-19" y2="-817.11" gradientTransform="matrix(24.8033 0 0 -24.8033 0 -19573.2715)">
	<stop  offset="0" style="stop-color:#D9F991"/>
	<stop  offset="0.239" style="stop-color:#D7F88D"/>
	<stop  offset="0.45" style="stop-color:#D1F383"/>
	<stop  offset="0.651" style="stop-color:#C6EC71"/>
	<stop  offset="0.844" style="stop-color:#B7E257"/>
	<stop  offset="1" style="stop-color:#A8D73D"/>
</linearGradient>
<path fill="url(#SVGID_2_)" d="M-347.2,693.8c9.9-9.9,17.4-27.3,17.4-47.1c0-49.6-37.2-86.8-84.3-86.8c-49.6,0-91.8,39.7-91.8,86.8
	c0,22.3,7.4,37.2,14.9,47.1h-79.4v-74.4c0-37.2-17.4-49.6-32.2-49.6c-14.9,0-32.2,14.9-42.2,22.3c0,0-17.4,14.9-37.2,14.9
	c-34.7,0-62-27.3-62-62s27.3-62,62-62c19.8,0,34.7,14.9,37.2,14.9c7.4,7.4,27.3,22.3,42.2,22.3s32.2-12.4,32.2-49.6V321.7h148.8
	c37.2,0,49.6-17.4,49.6-32.2c0-14.9-12.4-32.2-22.3-42.2c0,0-14.9-17.4-14.9-37.2c0-34.7,27.3-62,62-62s62,27.3,62,62
	c0,19.8-14.9,37.2-14.9,37.2c-9.9,9.9-22.3,27.3-22.3,42.2c0,14.9,12.4,32.2,49.6,32.2h74.4v99.2c-9.9-9.9-27.3-17.4-47.1-17.4
	c-49.6,0-86.8,37.2-86.8,84.3c0,49.6,39.7,91.8,86.8,91.8c22.3,0,37.2-7.4,47.1-14.9v129H-347.2z"/>
<linearGradient id="SVGID_3_" gradientUnits="userSpaceOnUse" x1="-19" y1="-796.11" x2="-19" y2="-816.11" gradientTransform="matrix(24.8033 0 0 -24.8033 0 -19573.2715)">
	<stop  offset="0" style="stop-color:#B3E810"/>
	<stop  offset="1" style="stop-color:#90C60D"/>
</linearGradient>
<path fill="url(#SVGID_3_)" d="M-307.6,669c2.5-7.4,2.5-14.9,2.5-22.3c0-62-47.1-111.6-109.1-111.6s-116.6,52.1-116.6,111.6
	c0,7.4,0,14.9,2.5,22.3h-17.4v-49.6c0-52.1-29.8-74.4-57-74.4c27.3,0,57-22.3,57-74.4v-124h124c52.1,0,74.4-29.8,74.4-57
	c0-17.4-9.9-37.2-29.8-59.5c-2.5-2.5-7.4-12.4-7.4-19.8c0-19.8,17.4-37.2,37.2-37.2c19.8,0,37.2,17.4,37.2,37.2
	c0,7.4-7.4,17.4-7.4,19.8c-19.8,22.3-29.8,42.2-29.8,59.5c0,27.3,22.3,57,74.4,57h49.6v34.7c-7.4-2.5-14.9-2.5-22.3-2.5
	c-62,0-111.6,47.1-111.6,109.1s52.1,116.6,111.6,116.6c7.4,0,14.9,0,22.3-2.5v67H-307.6z M-682.1,582.2c-19.8,0-37.2-17.4-37.2-37.2
	s17.4-37.2,37.2-37.2c7.4,0,17.4,7.4,19.8,7.4c22.3,19.8,42.2,29.8,59.5,29.8c-17.4,0-37.2,9.9-59.5,29.8
	C-664.7,577.2-674.7,582.2-682.1,582.2z"/>
<g>
	<g>
		<path fill="#00578A" d="M446.5,334.1L446.5,334.1L446.5,334.1v-91.8v-7.4H337.3c0-42.2-32.2-74.4-74.4-74.4s-74.4,32.2-74.4,74.4
			H76.9l0,0h-2.5v5v86.8c42.2,0,74.4,34.7,74.4,74.4s-32.2,74.4-74.4,74.4v129H186c0,42.2,32.2,74.4,74.4,74.4s74.4-32.2,74.4-74.4
			h111.6v-124l0,0l0,0l0,0l0,0c7.4,0,14.9,0,22.3-2.5c29.8-9.9,52.1-37.2,52.1-71.9C520.9,366.4,486.1,334.1,446.5,334.1z"/>
	</g>
	<g>
		<path fill="#700068" d="M446.5,334.1L446.5,334.1L446.5,334.1v-91.8v-7.4H337.3c0-42.2-32.2-74.4-74.4-74.4s-74.4,32.2-74.4,74.4
			H76.9l0,0h-2.5v5v86.8c42.2,0,74.4,34.7,74.4,74.4s-32.2,74.4-74.4,74.4v129H186c0,42.2,32.2,74.4,74.4,74.4s74.4-32.2,74.4-74.4
			h111.6v-124l0,0l0,0l0,0l0,0c7.4,0,14.9,0,22.3-2.5c29.8-9.9,52.1-37.2,52.1-71.9C520.9,366.4,486.1,334.1,446.5,334.1z"/>
	</g>
</g>
</svg>
