<?xml version="1.0" encoding="utf-8"?>
<!-- Generator: Adobe Illustrator 18.1.1, SVG Export Plug-In . SVG Version: 6.00 Build 0)  -->
<svg version="1.1" id="Layer_1" xmlns="http://www.w3.org/2000/svg" xmlns:xlink="http://www.w3.org/1999/xlink" x="0px" y="0px"
	 viewBox="0 0 595.3 841.9" enable-background="new 0 0 595.3 841.9" xml:space="preserve">
<linearGradient id="SVGID_1_" gradientUnits="userSpaceOnUse" x1="-25.6" y1="-2429.8601" x2="-25.6" y2="-2449.291" gradientTransform="matrix(24.8033 0 0 -24.8033 0 -60151.5273)">
	<stop  offset="0" style="stop-color:#76A1F0"/>
	<stop  offset="1" style="stop-color:#6B90D5"/>
</linearGradient>
<path fill="url(#SVGID_1_)" d="M-424.1,115.9h-421.7c-27.3,0-49.6,22.3-49.6,49.6v280.3c0,27.3,22.3,42.2,49.6,42.2V597l101.7-109.1
	h320c27.3,0,49.6-12.4,49.6-39.7V165.5C-374.5,138.2-399.3,115.9-424.1,115.9z"/>
<linearGradient id="SVGID_2_" gradientUnits="userSpaceOnUse" x1="-25.6" y1="-2430.8101" x2="-25.6" y2="-2446.6951" gradientTransform="matrix(24.8033 0 0 -24.8033 0 -60151.5273)">
	<stop  offset="0" style="stop-color:#BBE0F7"/>
	<stop  offset="1" style="stop-color:#82B4FB"/>
</linearGradient>
<path fill="url(#SVGID_2_)" d="M-821,463.1h-24.8c-9.9,0-24.8-2.5-24.8-14.9V165.5c0-14.9,12.4-24.8,24.8-24.8h421.7
	c12.4,0,24.8,12.4,24.8,24.8v280.3c0,14.9-19.8,14.9-24.8,14.9H-754l-67,71.9V463.1z"/>
<linearGradient id="SVGID_3_" gradientUnits="userSpaceOnUse" x1="-25.6" y1="-2431.8381" x2="-25.6" y2="-2444.1741" gradientTransform="matrix(24.8033 0 0 -24.8033 0 -60151.5273)">
	<stop  offset="0" style="stop-color:#95BFF8"/>
	<stop  offset="0.557" style="stop-color:#84ADEF"/>
	<stop  offset="1" style="stop-color:#7CA4EB"/>
</linearGradient>
<path fill="url(#SVGID_3_)" d="M-796.2,438.3h-49.6V165.5h421.7v272.8h-342.3l-29.8,32.2V438.3z"/>
<path fill="#FFFFFF" d="M-473.7,388.7h-322.4v-24.8h322.4C-473.7,363.9-473.7,388.7-473.7,388.7z M-473.7,314.3h-322.4v24.8h322.4
	C-473.7,339.1-473.7,314.3-473.7,314.3z M-473.7,264.7h-322.4v24.8h322.4C-473.7,289.5-473.7,264.7-473.7,264.7z M-473.7,215.1
	h-322.4v24.8h322.4C-473.7,239.9-473.7,215.1-473.7,215.1z"/>
<linearGradient id="SVGID_4_" gradientUnits="userSpaceOnUse" x1="-21.1" y1="-2437.76" x2="-21.1" y2="-2453.76" gradientTransform="matrix(24.8033 0 0 -24.8033 0 -60151.5273)">
	<stop  offset="0" style="stop-color:#90C50E"/>
	<stop  offset="1" style="stop-color:#70A034"/>
</linearGradient>
<path fill="url(#SVGID_4_)" d="M-349.7,311.8H-697c-27.3,0-49.6,17.4-49.6,44.6v223.2c0,27.3,22.3,49.6,49.6,49.6v79.4l76.9-74.4
	h270.4c27.3,0,49.6-27.3,49.6-54.6V356.5C-300.1,329.2-322.4,311.8-349.7,311.8z"/>
<linearGradient id="SVGID_5_" gradientUnits="userSpaceOnUse" x1="-21.1" y1="-2438.76" x2="-21.1" y2="-2451.26" gradientTransform="matrix(24.8033 0 0 -24.8033 0 -60151.5273)">
	<stop  offset="0" style="stop-color:#D9F991"/>
	<stop  offset="0.239" style="stop-color:#D7F88D"/>
	<stop  offset="0.45" style="stop-color:#D1F383"/>
	<stop  offset="0.651" style="stop-color:#C6EC71"/>
	<stop  offset="0.844" style="stop-color:#B7E257"/>
	<stop  offset="1" style="stop-color:#A8D73D"/>
</linearGradient>
<path fill="url(#SVGID_5_)" d="M-672.2,609.5H-697c-14.9,0-24.8-17.4-24.8-29.8V356.5c0-14.9,9.9-19.8,24.8-19.8h347.2
	c14.9,0,24.8,5,24.8,19.8v223.2c0,14.9-9.9,29.8-24.8,29.8h-282.8l-39.7,37.2V609.5z"/>
<linearGradient id="SVGID_6_" gradientUnits="userSpaceOnUse" x1="-21.1" y1="-2439.76" x2="-21.1" y2="-2448.76" gradientTransform="matrix(24.8033 0 0 -24.8033 0 -60151.5273)">
	<stop  offset="0" style="stop-color:#B3E810"/>
	<stop  offset="1" style="stop-color:#90C60D"/>
</linearGradient>
<path fill="url(#SVGID_6_)" d="M-647.4,584.6H-697V361.4h347.2v223.2H-647.4"/>
<path fill="#FFFFFF" d="M-399.3,535h-248v-24.8h248V535z M-399.3,460.6h-248v24.8h248V460.6z M-399.3,411h-248v24.8h248V411z"/>
<path fill="#700068" d="M530.8,249.8h-320c-12.4,0-22.3,9.9-22.3,24.8v39.7v14.9l0,0h12.4h171.1h148.8v22.3H379.5c0,5,0,59.5,0,59.5
	v24.8v27.3v42.2H439l54.6,64.5c12.4,14.9,22.3,12.4,22.3-7.4v-54.6h19.8c12.4,0,22.3-9.9,22.3-22.3V274.6
	C555.6,259.7,545.7,249.8,530.8,249.8z"/>
<path fill="#700068" d="M352.2,344.1H54.6c-9.9,0-14.9,7.4-14.9,14.9v188.5c0,7.4,7.4,14.9,14.9,14.9l0,0h24.8v57
	c0,19.8,9.9,22.3,22.3,7.4l54.6-62h193.5c7.4,0,14.9-7.4,14.9-14.9l0,0v-191C367.1,351.5,359.6,344.1,352.2,344.1z M81.9,470.6H320"
	/>
<rect x="64.5" y="373.8" fill="#FFFFFF" width="275.3" height="17.4"/>
<rect x="64.5" y="418.5" fill="#FFFFFF" width="275.3" height="17.4"/>
<rect x="64.5" y="463.1" fill="#FFFFFF" width="275.3" height="17.4"/>
<rect x="64.5" y="507.8" fill="#FFFFFF" width="275.3" height="17.4"/>
<rect x="377" y="383.7" fill="#FFFFFF" width="141.4" height="22.3"/>
<rect x="377" y="438.3" fill="#FFFFFF" width="141.4" height="22.3"/>
<rect x="218.3" y="279.6" fill="#FFFFFF" width="302.6" height="22.3"/>
</svg>
