<?xml version="1.0" encoding="utf-8"?>
<!-- Generator: Adobe Illustrator 21.1.0, SVG Export Plug-In . SVG Version: 6.00 Build 0)  -->
<svg version="1.1" id="Layer_1" xmlns="http://www.w3.org/2000/svg" xmlns:xlink="http://www.w3.org/1999/xlink" x="0px" y="0px"
	 viewBox="0 0 24 24" style="enable-background:new 0 0 24 24;" xml:space="preserve">
<style type="text/css">
	.st0{fill:url(#SVGID_1_);}
	.st1{fill:url(#SVGID_2_);}
	.st2{fill:url(#SVGID_3_);}
	.st3{fill:#FFFFFF;}
	.st4{fill:url(#SVGID_4_);}
	.st5{fill:url(#SVGID_5_);}
	.st6{fill:#F2EFD5;}
	.st7{fill:url(#SVGID_6_);}
	.st8{fill:url(#SVGID_7_);}
	.st9{fill:url(#SVGID_8_);}
	.st10{fill:url(#SVGID_9_);}
	.st11{fill:#700068;}
</style>
<linearGradient id="SVGID_1_" gradientUnits="userSpaceOnUse" x1="-22" y1="-2430.1101" x2="-22" y2="-2454.1101" gradientTransform="matrix(1 0 0 -1 0 -2430.1101)">
	<stop  offset="0" style="stop-color:#95BFF8"/>
	<stop  offset="0.557" style="stop-color:#84ADEF"/>
	<stop  offset="1" style="stop-color:#7CA4EB"/>
</linearGradient>
<path class="st0" d="M-19.5,0H-32v24h20V7.9"/>
<linearGradient id="SVGID_2_" gradientUnits="userSpaceOnUse" x1="-22" y1="-2431.1101" x2="-22" y2="-2453.1101" gradientTransform="matrix(1 0 0 -1 0 -2430.1101)">
	<stop  offset="0" style="stop-color:#E7F4FC"/>
	<stop  offset="1" style="stop-color:#DEEFFC"/>
</linearGradient>
<path class="st1" d="M-19.9,1H-31v22h18V8.3"/>
<linearGradient id="SVGID_3_" gradientUnits="userSpaceOnUse" x1="-22" y1="-2432.1101" x2="-22" y2="-2452.1101" gradientTransform="matrix(1 0 0 -1 0 -2430.1101)">
	<stop  offset="0" style="stop-color:#CEE9F9"/>
	<stop  offset="1" style="stop-color:#BBDFF8"/>
</linearGradient>
<path class="st2" d="M-20.4,2H-30v20h16V8.7"/>
<path class="st3" d="M-16,21h-12v-1h12V21z M-16,18h-12v1h12V18z M-16,16h-12v1h12V16z M-16,14h-12v1h12V14z"/>
<linearGradient id="SVGID_4_" gradientUnits="userSpaceOnUse" x1="-22" y1="-2434.1101" x2="-22" y2="-2442.1101" gradientTransform="matrix(1 0 0 -1 0 -2430.1101)">
	<stop  offset="0" style="stop-color:#76A1F0"/>
	<stop  offset="1" style="stop-color:#6B90D5"/>
</linearGradient>
<path class="st4" d="M-16.7,4H-29v8h14V5.8"/>
<linearGradient id="SVGID_5_" gradientUnits="userSpaceOnUse" x1="-22" y1="-2439.1101" x2="-22" y2="-2441.1101" gradientTransform="matrix(1 0 0 -1 0 -2430.1101)">
	<stop  offset="0" style="stop-color:#57C3F6"/>
	<stop  offset="0.165" style="stop-color:#83D3F8"/>
	<stop  offset="0.355" style="stop-color:#AFE3FB"/>
	<stop  offset="0.54" style="stop-color:#D2EFFD"/>
	<stop  offset="0.713" style="stop-color:#EBF8FE"/>
	<stop  offset="0.871" style="stop-color:#FAFDFF"/>
	<stop  offset="1" style="stop-color:#FFFFFF"/>
</linearGradient>
<path class="st5" d="M-28,9h12v2h-12V9z"/>
<path class="st6" d="M-19.6,10.9c-0.5-0.2-1.1-0.3-2.7-0.4c-1.5-0.1-0.9-0.4-2-0.8c-1-0.5-3.7-0.3-3.7-0.3V11h8.6
	C-19.4,11-19.5,10.9-19.6,10.9z"/>
<linearGradient id="SVGID_6_" gradientUnits="userSpaceOnUse" x1="-28" y1="-2440.3711" x2="-19.7" y2="-2440.3711" gradientTransform="matrix(1 0 0 -1 0 -2430.1101)">
	<stop  offset="0" style="stop-color:#F8E5B5"/>
	<stop  offset="1" style="stop-color:#F9E5B6"/>
</linearGradient>
<path class="st7" d="M-22.3,10.7c-1.5-0.1-0.9-0.6-2-1c-1-0.4-3.7,0-3.7,0V11h8.3C-20.5,11-20.8,10.8-22.3,10.7z"/>
<linearGradient id="SVGID_7_" gradientUnits="userSpaceOnUse" x1="-19.4665" y1="-2431.6768" x2="-23.8375" y2="-2441.0508" gradientTransform="matrix(1 0 0 -1 0 -2430.1101)">
	<stop  offset="0" style="stop-color:#57C3F6"/>
	<stop  offset="0.229" style="stop-color:#8AD5F9"/>
	<stop  offset="0.483" style="stop-color:#BCE7FB"/>
	<stop  offset="0.705" style="stop-color:#E1F4FD"/>
	<stop  offset="0.885" style="stop-color:#F7FCFF"/>
	<stop  offset="1" style="stop-color:#FFFFFF"/>
</linearGradient>
<path class="st8" d="M-28,5h12v4h-12V5z"/>
<path class="st3" d="M-20.8,5.6c0,0-0.2-0.4-0.7-0.2c-0.4,0.3-0.1,0.7-0.1,0.7h-0.1c-0.1,0,0,0.2,0,0.2s-0.3,0-0.4,0.2
	C-22.4,6.9-22.2,7-22.2,7s-0.5,0.4-0.2,0.8c0.3,0.4,0.6,0.1,0.6,0.1s0.2,0.3,0.6,0.3c0.4,0.1,0.6-0.1,0.6-0.1s0.3,0.2,0.5,0.1
	c0.5,0,0.6-0.2,0.6-0.2s0.6,0.3,0.8-0.3c0.1-0.4-0.3-0.6-0.3-0.6s0.1-0.4-0.2-0.6s-0.6,0-0.6,0s0.1,0,0-0.1c0-0.1-0.3-0.1-0.3-0.1
	s0.1-0.6-0.2-0.8C-20.6,5.3-20.8,5.6-20.8,5.6z M-23.4,6.9c0,0-0.1-0.1-0.2,0c-0.1,0,0,0.1,0,0.1s-0.1,0-0.1,0.1v0.1
	c0,0-0.1,0.1,0,0.2s0.2,0,0.2,0s0.1,0.1,0.2,0.1h0.2c0,0,0.1,0.1,0.2,0L-23,7.6c0,0,0.2,0.1,0.2-0.1c0-0.1-0.1-0.2-0.1-0.2
	s0-0.1-0.1-0.2h-0.3C-23.3,7.1-23.3,6.9-23.4,6.9C-23.3,6.8-23.4,6.9-23.4,6.9z"/>
<linearGradient id="SVGID_8_" gradientUnits="userSpaceOnUse" x1="-16.75" y1="-2430.1101" x2="-16.75" y2="-2439.469" gradientTransform="matrix(1 0 0 -1 0 -2430.1101)">
	<stop  offset="0" style="stop-color:#95BFF8"/>
	<stop  offset="0.557" style="stop-color:#84ADEF"/>
	<stop  offset="1" style="stop-color:#7CA4EB"/>
</linearGradient>
<path class="st9" d="M-21,9c0,0,5.2-1.5,9,0.4V7.9L-19.5,0h-2C-18.9,3.7-21,9-21,9z"/>
<linearGradient id="SVGID_9_" gradientUnits="userSpaceOnUse" x1="-19.6365" y1="-2437.6965" x2="-16.5085" y2="-2434.5686" gradientTransform="matrix(1 0 0 -1 0 -2430.1101)">
	<stop  offset="0" style="stop-color:#E7F4FC"/>
	<stop  offset="0.518" style="stop-color:#E5F3FC"/>
	<stop  offset="0.705" style="stop-color:#DEF0FB"/>
	<stop  offset="0.837" style="stop-color:#D3EBFA"/>
	<stop  offset="0.872" style="stop-color:#CEE9F9"/>
	<stop  offset="1" style="stop-color:#BDD8F0"/>
</linearGradient>
<path class="st10" d="M-13.5,7.8c-0.9-0.2-2-0.3-3.1-0.3s-2.1,0.1-3,0.3c0.4-1.6,0.7-4.1-0.2-6.4L-13.5,7.8z"/>
<rect x="5" y="16.1" class="st3" width="10" height="1.2"/>
<path class="st11" d="M20.8,22.8H5c-0.4,0-0.7-0.3-0.7-0.7V1.9c0-0.4,0.3-0.7,0.7-0.7h11.8v3.9c0,0.5,0.4,0.8,0.8,0.8h3.9V22
	C21.5,22.5,21.2,22.8,20.8,22.8z"/>
<path class="st11" d="M17.2,4.9V1.2l4.3,4.3h-3.6C17.5,5.5,17.2,5.2,17.2,4.9z"/>
<rect x="6.2" y="9.6" class="st3" width="12.1" height="0.8"/>
<rect x="6.2" y="12" class="st3" width="12.1" height="0.8"/>
<rect x="6.2" y="14.5" class="st3" width="12.1" height="0.8"/>
<rect x="6.2" y="17" class="st3" width="12.1" height="0.8"/>
</svg>
