<?xml version="1.0" encoding="utf-8"?>
<!-- Generator: Adobe Illustrator 18.1.1, SVG Export Plug-In . SVG Version: 6.00 Build 0)  -->
<svg version="1.1" id="Layer_1" xmlns="http://www.w3.org/2000/svg" xmlns:xlink="http://www.w3.org/1999/xlink" x="0px" y="0px"
	 viewBox="0 0 595.3 841.9" enable-background="new 0 0 595.3 841.9" xml:space="preserve">
<linearGradient id="SVGID_1_" gradientUnits="userSpaceOnUse" x1="-20.8" y1="-794.41" x2="-20.8" y2="-817.736" gradientTransform="matrix(24.8033 0 0 -24.8033 0 -19573.2715)">
	<stop  offset="0" style="stop-color:#76A1F0"/>
	<stop  offset="1" style="stop-color:#6B90D5"/>
</linearGradient>
<path fill="url(#SVGID_1_)" d="M-649.8,339.1c-32.2,0-59.5-22.3-59.5-57c0-69.4,69.4-151.3,191-151.3c81.9,0,195.9,54.6,195.9,148.8
	c0,49.6-29.8,86.8-89.3,109.1c-81.9,29.8-34.7,91.8-111.6,91.8c-32.2,0-52.1-19.8-52.1-52.1c0-67,69.4-104.2,69.4-171.1
	c0-17.4-7.4-39.7-27.3-39.7c-22.3,0-24.8,22.3-24.8,37.2C-565.5,306.8-597.8,339.1-649.8,339.1z M-528.3,708.7
	c-49.6,0-89.3-39.7-89.3-89.3c0-49.6,39.7-89.3,89.3-89.3c49.6,0,89.3,39.7,89.3,89.3C-441.5,669-481.2,708.7-528.3,708.7z"/>
<linearGradient id="SVGID_2_" gradientUnits="userSpaceOnUse" x1="-20.8" y1="-795.41" x2="-20.8" y2="-816.736" gradientTransform="matrix(24.8033 0 0 -24.8033 0 -19573.2715)">
	<stop  offset="0" style="stop-color:#BBE0F7"/>
	<stop  offset="1" style="stop-color:#82B4FB"/>
</linearGradient>
<path fill="url(#SVGID_2_)" d="M-528.3,683.9c-34.7,0-64.5-27.3-64.5-64.5c0-34.7,27.3-64.5,64.5-64.5s64.5,27.3,64.5,64.5
	C-466.3,656.6-493.6,683.9-528.3,683.9z M-520.9,455.7c-19.8,0-27.3-9.9-27.3-27.3c0-27.3,14.9-47.1,29.8-71.9
	c17.4-27.3,37.2-57,37.2-99.2c0-32.2-17.4-64.5-52.1-64.5c-44.6,0-49.6,42.2-49.6,59.5c-5,27.3-19.8,62-67,62
	c-19.8,0-34.7-12.4-34.7-32.2c0-52.1,52.1-126.5,166.2-126.5c71.9,0,171.1,47.1,171.1,124c0,39.7-24.8,67-71.9,84.3
	c-49.6,19.8-62,49.6-71.9,69.4C-498.5,453.2-498.5,455.7-520.9,455.7z"/>
<linearGradient id="SVGID_3_" gradientUnits="userSpaceOnUse" x1="-20.75" y1="-796.51" x2="-20.75" y2="-815.7369" gradientTransform="matrix(24.8033 0 0 -24.8033 0 -19573.2715)">
	<stop  offset="0" style="stop-color:#95BFF8"/>
	<stop  offset="0.557" style="stop-color:#84ADEF"/>
	<stop  offset="1" style="stop-color:#7CA4EB"/>
</linearGradient>
<path fill="url(#SVGID_3_)" d="M-528.3,659.1c-22.3,0-39.7-17.4-39.7-39.7s17.4-39.7,39.7-39.7s39.7,17.4,39.7,39.7
	S-506,659.1-528.3,659.1z M-520.9,430.9h-2.5v-2.5c0-19.8,12.4-37.2,24.8-57c19.8-29.8,42.2-64.5,42.2-114.1
	c0-32.2-12.4-57-32.2-74.4c54.6,9.9,119.1,44.6,119.1,96.7c0,9.9,0,39.7-57,62c-59.5,22.3-76.9,62-86.8,84.3c0,2.5-2.5,5-2.5,5
	L-520.9,430.9z M-649.8,289.5c-9.9,0-9.9-5-9.9-7.4c0-27.3,22.3-67,67-86.8c-7.4,12.4-14.9,29.8-17.4,54.6
	C-612.6,284.5-632.5,289.5-649.8,289.5z"/>
<g>
	<path fill="#700068" d="M295.2,631.8c-27.3,0-47.1-19.8-47.1-47.1s19.8-47.1,47.1-47.1l0,0c27.3,0,47.1,19.8,47.1,47.1
		C342.3,611.9,322.4,631.8,295.2,631.8z"/>
	<path fill="#700068" d="M396.9,373.8c-7.4,7.4-9.9,12.4-17.4,19.8c-2.5,2.5-9.9,9.9-17.4,17.4s-12.4,9.9-14.9,17.4
		c-2.5,2.5-9.9,9.9-9.9,12.4c-7.4,9.9-9.9,22.3-9.9,37.2v27.3h-67v-37.2c0-12.4,0-22.3,7.4-37.2c7.4-9.9,12.4-19.8,22.3-29.8
		l44.6-44.6c7.4-9.9,12.4-22.3,12.4-34.7s-7.4-27.3-12.4-37.2c-9.9-9.9-22.3-12.4-37.2-12.4c-12.4,0-27.3,2.5-37.2,12.4
		c-12.4,9.9-17.4,22.3-17.4,37.2h-67c2.5-29.8,17.4-59.5,39.7-79.4s54.6-29.8,86.8-29.8c29.8,0,59.5,9.9,84.3,27.3
		c22.3,19.8,32.2,47.1,32.2,79.4C416.7,336.6,409.3,361.4,396.9,373.8z"/>
</g>
</svg>
