<?xml version="1.0" encoding="utf-8"?>
<!-- Generator: Adobe Illustrator 18.1.1, SVG Export Plug-In . SVG Version: 6.00 Build 0)  -->
<svg version="1.1" id="Layer_1" xmlns="http://www.w3.org/2000/svg" xmlns:xlink="http://www.w3.org/1999/xlink" x="0px" y="0px"
	 viewBox="0 0 595.3 841.9" enable-background="new 0 0 595.3 841.9" xml:space="preserve">
<radialGradient id="SVGID_1_" cx="-14.4" cy="-1632.0599" r="7.4917" gradientTransform="matrix(24.8033 0 0 -24.8033 0 -39862.3984)" gradientUnits="userSpaceOnUse">
	<stop  offset="0" style="stop-color:#76A1F0"/>
	<stop  offset="1" style="stop-color:#6B90D5"/>
</radialGradient>
<path fill="url(#SVGID_1_)" d="M-109.1,654.1c0,27.3-22.3,49.6-49.6,49.6h-396.9c-27.3,0-49.6-22.3-49.6-49.6v-74.4
	c0-27.3,22.3-49.6,49.6-49.6h396.9c27.3,0,49.6,22.3,49.6,49.6C-109.1,579.7-109.1,654.1-109.1,654.1z"/>
<radialGradient id="SVGID_2_" cx="-14.4" cy="-1632.0599" r="6.6049" gradientTransform="matrix(24.8033 0 0 -24.8033 0 -39862.3984)" gradientUnits="userSpaceOnUse">
	<stop  offset="0" style="stop-color:#BBE0F7"/>
	<stop  offset="1" style="stop-color:#82B4FB"/>
</radialGradient>
<path fill="url(#SVGID_2_)" d="M-555.6,678.9c-14.9,0-24.8-9.9-24.8-24.8v-74.4c0-14.9,9.9-24.8,24.8-24.8h396.9
	c14.9,0,24.8,9.9,24.8,24.8v74.4c0,14.9-9.9,24.8-24.8,24.8H-555.6z"/>
<radialGradient id="SVGID_3_" cx="-14.4" cy="-1632.0599" r="5.7554" gradientTransform="matrix(24.8033 0 0 -24.8033 0 -39862.3984)" gradientUnits="userSpaceOnUse">
	<stop  offset="0" style="stop-color:#95BFF8"/>
	<stop  offset="0.557" style="stop-color:#84ADEF"/>
	<stop  offset="1" style="stop-color:#7CA4EB"/>
</radialGradient>
<path fill="url(#SVGID_3_)" d="M-555.6,579.7h396.9v74.4h-396.9V579.7z"/>
<radialGradient id="SVGID_4_" cx="-14.4" cy="-1624.0599" r="7.4917" gradientTransform="matrix(24.8033 0 0 -24.8033 0 -39862.3984)" gradientUnits="userSpaceOnUse">
	<stop  offset="0" style="stop-color:#76A1F0"/>
	<stop  offset="1" style="stop-color:#6B90D5"/>
</radialGradient>
<path fill="url(#SVGID_4_)" d="M-109.1,455.7c0,27.3-22.3,49.6-49.6,49.6h-396.9c-27.3,0-49.6-22.3-49.6-49.6v-74.4
	c0-27.3,22.3-49.6,49.6-49.6h396.9c27.3,0,49.6,22.3,49.6,49.6C-109.1,381.3-109.1,455.7-109.1,455.7z"/>
<radialGradient id="SVGID_5_" cx="-14.4" cy="-1624.0599" r="6.6049" gradientTransform="matrix(24.8033 0 0 -24.8033 0 -39862.3984)" gradientUnits="userSpaceOnUse">
	<stop  offset="0" style="stop-color:#BBE0F7"/>
	<stop  offset="1" style="stop-color:#82B4FB"/>
</radialGradient>
<path fill="url(#SVGID_5_)" d="M-555.6,480.5c-14.9,0-24.8-9.9-24.8-24.8v-74.4c0-14.9,9.9-24.8,24.8-24.8h396.9
	c14.9,0,24.8,9.9,24.8,24.8v74.4c0,14.9-9.9,24.8-24.8,24.8H-555.6z"/>
<radialGradient id="SVGID_6_" cx="-14.4" cy="-1624.0599" r="5.7554" gradientTransform="matrix(24.8033 0 0 -24.8033 0 -39862.3984)" gradientUnits="userSpaceOnUse">
	<stop  offset="0" style="stop-color:#95BFF8"/>
	<stop  offset="0.557" style="stop-color:#84ADEF"/>
	<stop  offset="1" style="stop-color:#7CA4EB"/>
</radialGradient>
<path fill="url(#SVGID_6_)" d="M-555.6,381.3h396.9v74.4h-396.9V381.3z"/>
<radialGradient id="SVGID_7_" cx="-14.4" cy="-1616.0599" r="7.4917" gradientTransform="matrix(24.8033 0 0 -24.8033 0 -39862.3984)" gradientUnits="userSpaceOnUse">
	<stop  offset="0" style="stop-color:#76A1F0"/>
	<stop  offset="1" style="stop-color:#6B90D5"/>
</radialGradient>
<path fill="url(#SVGID_7_)" d="M-109.1,257.2c0,27.3-22.3,49.6-49.6,49.6h-396.9c-27.3,0-49.6-22.3-49.6-49.6v-74.4
	c0-27.3,22.3-49.6,49.6-49.6h396.9c27.3,0,49.6,22.3,49.6,49.6C-109.1,182.8-109.1,257.2-109.1,257.2z"/>
<radialGradient id="SVGID_8_" cx="-14.4" cy="-1616.0599" r="6.6049" gradientTransform="matrix(24.8033 0 0 -24.8033 0 -39862.3984)" gradientUnits="userSpaceOnUse">
	<stop  offset="0" style="stop-color:#BBE0F7"/>
	<stop  offset="1" style="stop-color:#82B4FB"/>
</radialGradient>
<path fill="url(#SVGID_8_)" d="M-555.6,282c-14.9,0-24.8-9.9-24.8-24.8v-74.4c0-14.9,9.9-24.8,24.8-24.8h396.9
	c14.9,0,24.8,9.9,24.8,24.8v74.4c0,14.9-9.9,24.8-24.8,24.8H-555.6z"/>
<radialGradient id="SVGID_9_" cx="-14.4" cy="-1616.0599" r="5.7554" gradientTransform="matrix(24.8033 0 0 -24.8033 0 -39862.3984)" gradientUnits="userSpaceOnUse">
	<stop  offset="0" style="stop-color:#95BFF8"/>
	<stop  offset="0.557" style="stop-color:#84ADEF"/>
	<stop  offset="1" style="stop-color:#7CA4EB"/>
</radialGradient>
<path fill="url(#SVGID_9_)" d="M-555.6,182.8h396.9v74.4h-396.9V182.8z"/>
<title>02</title>
<path fill="#700068" d="M478.7,641.7H148.8c-7.4,0-14.9-7.4-14.9-14.9V207.6c0-7.4,7.4-14.9,14.9-14.9h245.6v81.9
	c0,9.9,7.4,17.4,17.4,17.4h81.9v334.8C493.6,636.7,488.6,641.7,478.7,641.7z M320,443.3h-14.9v-24.8h12.4c9.9,0,14.9,5,14.9,12.4
	l0,0C332.4,438.3,327.4,443.3,320,443.3z M404.3,269.6v-74.4l89.3,89.3h-74.4C409.3,284.5,404.3,277.1,404.3,269.6z"/>
<path fill="#FFFFFF" d="M305.1,463.1c37.2,0,67-29.8,67-67h-67v-67c-37.2,0-67,29.8-67,67S267.9,463.1,305.1,463.1z"/>
<path fill="#FFFFFF" d="M389.4,381.3c0-37.2-32.2-67-67-67h-5v71.9h71.9C389.4,386.2,389.4,381.3,389.4,381.3z"/>
<rect x="193.5" y="485.4" fill="#FFFFFF" width="240.6" height="9.9"/>
<rect x="193.5" y="520.2" fill="#FFFFFF" width="240.6" height="9.9"/>
<rect x="193.5" y="549.9" fill="#FFFFFF" width="240.6" height="9.9"/>
</svg>
