<?xml version="1.0" encoding="utf-8"?>
<!-- Generator: Adobe Illustrator 18.1.1, SVG Export Plug-In . SVG Version: 6.00 Build 0)  -->
<svg version="1.1" id="Layer_1" xmlns="http://www.w3.org/2000/svg" xmlns:xlink="http://www.w3.org/1999/xlink" x="0px" y="0px"
	 viewBox="0 0 595.3 841.9" enable-background="new 0 0 595.3 841.9" xml:space="preserve">
<linearGradient id="SVGID_1_" gradientUnits="userSpaceOnUse" x1="-26.0758" y1="-804.333" x2="-26.0758" y2="-818.09" gradientTransform="matrix(24.8033 0 0 -24.8033 0 -19573.2715)">
	<stop  offset="0" style="stop-color:#DB6D17"/>
	<stop  offset="1" style="stop-color:#BF3B08"/>
</linearGradient>
<path fill="url(#SVGID_1_)" d="M-568,597c-27.3-19.8-42.2-27.3-49.6-59.5c-5-27.3-32.2-158.7-32.2-158.7l-121.5,24.8
	c0,0,22.3,114.1,44.6,223.2c22.3,109.1,24.8,106.7,168.7,76.9C-498.5,688.8-520.9,631.8-568,597z"/>
<linearGradient id="SVGID_2_" gradientUnits="userSpaceOnUse" x1="-25.9926" y1="-805.51" x2="-25.9926" y2="-817.0909" gradientTransform="matrix(24.8033 0 0 -24.8033 0 -19573.2715)">
	<stop  offset="0" style="stop-color:#F6A55E"/>
	<stop  offset="1" style="stop-color:#EA5B03"/>
</linearGradient>
<path fill="url(#SVGID_2_)" d="M-664.7,693.8c-19.8,0-22.3,0-37.2-74.4l-39.7-198.4l71.9-14.9l29.8,136.4
	c7.4,39.7,24.8,52.1,47.1,67l9.9,7.4c27.3,19.8,37.2,42.2,34.7,52.1c0,5-12.4,7.4-14.9,7.4l-12.4,2.5
	C-615.1,686.3-644.9,693.8-664.7,693.8z"/>
<linearGradient id="SVGID_3_" gradientUnits="userSpaceOnUse" x1="-26.0255" y1="-806.6859" x2="-26.0255" y2="-816.0029" gradientTransform="matrix(24.8033 0 0 -24.8033 0 -19573.2715)">
	<stop  offset="0" style="stop-color:#F17219"/>
	<stop  offset="1" style="stop-color:#EA5B03"/>
</linearGradient>
<path fill="url(#SVGID_3_)" d="M-644.9,666.5c-17.4,0-17.4,0-29.8-52.1l-34.7-173.6l24.8-5l22.3,111.6c9.9,47.1,34.7,67,57,81.9
	l9.9,7.4C-570.5,659.1-575.4,654.1-644.9,666.5z"/>
<linearGradient id="SVGID_4_" gradientUnits="userSpaceOnUse" x1="-22.7" y1="-794.11" x2="-22.7" y2="-813.11" gradientTransform="matrix(24.8033 0 0 -24.8033 0 -19573.2715)">
	<stop  offset="0" style="stop-color:#C3C3C3"/>
	<stop  offset="1" style="stop-color:#ACACAC"/>
</linearGradient>
<path fill="url(#SVGID_4_)" d="M-525.8,247.3h-195.9c-62,0-114.1,54.6-114.1,111.6s52.1,111.6,114.1,111.6h188.5
	c0,0,141.4,0,243.1,124V358.9V123.3C-372.1,242.4-525.8,247.3-525.8,247.3z"/>
<linearGradient id="SVGID_5_" gradientUnits="userSpaceOnUse" x1="-22.8" y1="-796.71" x2="-22.8" y2="-810.636" gradientTransform="matrix(24.8033 0 0 -24.8033 0 -19573.2715)">
	<stop  offset="0" style="stop-color:#E9E9E9"/>
	<stop  offset="1" style="stop-color:#C4C4C4"/>
</linearGradient>
<path fill="url(#SVGID_5_)" d="M-317.5,532.6c-99.2-86.8-210.8-86.8-218.3-86.8h-188.5c-47.1,0-89.3-39.7-89.3-86.8
	s44.6-86.8,91.8-86.8h193.5c7.4,0,121.5-5,210.8-84.3L-317.5,532.6L-317.5,532.6z"/>
<linearGradient id="SVGID_6_" gradientUnits="userSpaceOnUse" x1="-22.8" y1="-798.71" x2="-22.8" y2="-808.6381" gradientTransform="matrix(24.8033 0 0 -24.8033 0 -19573.2715)">
	<stop  offset="0" style="stop-color:#F7F7F7"/>
	<stop  offset="0.104" style="stop-color:#FCFCFC"/>
	<stop  offset="0.329" style="stop-color:#FFFFFF"/>
	<stop  offset="0.569" style="stop-color:#E8E8E8"/>
	<stop  offset="0.815" style="stop-color:#D7D7D7"/>
	<stop  offset="1" style="stop-color:#D1D1D1"/>
</linearGradient>
<path fill="url(#SVGID_6_)" d="M-342.3,483c-94.3-62-188.5-62-193.5-62h-188.5c-32.2,0-64.5-29.8-64.5-62s32.2-62,67-62h193.5
	c5,0,99.2-5,186-59.5L-342.3,483L-342.3,483z"/>
<linearGradient id="SVGID_7_" gradientUnits="userSpaceOnUse" x1="-28.3" y1="-799.11" x2="-28.3" y2="-808.11" gradientTransform="matrix(24.8033 0 0 -24.8033 0 -19573.2715)">
	<stop  offset="0" style="stop-color:#DB6D17"/>
	<stop  offset="1" style="stop-color:#BF3B08"/>
</linearGradient>
<path fill="url(#SVGID_7_)" d="M-565.5,247.3h-158.7c-62,0-114.1,54.6-114.1,111.6s52.1,111.6,114.1,111.6h158.7V247.3z"/>
<linearGradient id="SVGID_8_" gradientUnits="userSpaceOnUse" x1="-27.75" y1="-800.11" x2="-27.75" y2="-807.11" gradientTransform="matrix(24.8033 0 0 -24.8033 0 -19573.2715)">
	<stop  offset="0" style="stop-color:#F6A55E"/>
	<stop  offset="1" style="stop-color:#EA5B03"/>
</linearGradient>
<path fill="url(#SVGID_8_)" d="M-565.5,272.1h-158.7c-47.1,0-89.3,39.7-89.3,86.8s44.6,86.8,91.8,86.8H-563L-565.5,272.1
	L-565.5,272.1z"/>
<linearGradient id="SVGID_9_" gradientUnits="userSpaceOnUse" x1="-27.3" y1="-801.11" x2="-27.3" y2="-806.11" gradientTransform="matrix(24.8033 0 0 -24.8033 0 -19573.2715)">
	<stop  offset="0.22" style="stop-color:#F6A55E"/>
	<stop  offset="0.508" style="stop-color:#F28C3F"/>
	<stop  offset="1" style="stop-color:#EA5B03"/>
</linearGradient>
<path fill="url(#SVGID_9_)" d="M-565.5,296.9h-158.7c-32.2,0-64.5,29.8-64.5,62s32.2,62,64.5,62h158.7V296.9z"/>
<linearGradient id="SVGID_10_" gradientUnits="userSpaceOnUse" x1="-11.8" y1="-794.11" x2="-11.8" y2="-813.11" gradientTransform="matrix(24.8033 0 0 -24.8033 0 -19573.2715)">
	<stop  offset="0" style="stop-color:#DB6D17"/>
	<stop  offset="1" style="stop-color:#BF3B08"/>
</linearGradient>
<path fill="url(#SVGID_10_)" d="M-342.3,545c0,27.3,22.3,49.6,49.6,49.6c27.3,0,49.6-22.3,49.6-49.6V172.9
	c0-27.3-22.3-49.6-49.6-49.6c-27.3,0-49.6,22.3-49.6,49.6V545z"/>
<linearGradient id="SVGID_11_" gradientUnits="userSpaceOnUse" x1="-11.8" y1="-795.11" x2="-11.8" y2="-812.11" gradientTransform="matrix(24.8033 0 0 -24.8033 0 -19573.2715)">
	<stop  offset="0" style="stop-color:#F6A55E"/>
	<stop  offset="1" style="stop-color:#EA5B03"/>
</linearGradient>
<path fill="url(#SVGID_11_)" d="M-292.7,569.8c-14.9,0-24.8-9.9-24.8-24.8V172.9c0-14.9,9.9-24.8,24.8-24.8
	c14.9,0,24.8,9.9,24.8,24.8V545C-267.9,559.8-275.3,569.8-292.7,569.8z"/>
<linearGradient id="SVGID_12_" gradientUnits="userSpaceOnUse" x1="-11.8" y1="-795.11" x2="-11.8" y2="-812.11" gradientTransform="matrix(24.8033 0 0 -24.8033 0 -19573.2715)">
	<stop  offset="0" style="stop-color:#F17219"/>
	<stop  offset="9.000000e-002" style="stop-color:#F38A39"/>
	<stop  offset="0.183" style="stop-color:#F59E54"/>
	<stop  offset="0.238" style="stop-color:#F6A55E"/>
	<stop  offset="0.246" style="stop-color:#F5A35C"/>
	<stop  offset="0.381" style="stop-color:#EC8740"/>
	<stop  offset="0.515" style="stop-color:#E5722C"/>
	<stop  offset="0.649" style="stop-color:#E06620"/>
	<stop  offset="0.78" style="stop-color:#DF621C"/>
	<stop  offset="1" style="stop-color:#D64701"/>
</linearGradient>
<path fill="url(#SVGID_12_)" d="M-292.7,569.8c-14.9,0-24.8-9.9-24.8-24.8V172.9c0-14.9,9.9-24.8,24.8-24.8
	c14.9,0,24.8,9.9,24.8,24.8V545C-267.9,559.8-275.3,569.8-292.7,569.8z"/>
<path fill="#00578A" d="M1391.5,230H1069c-24.8,0-42.2,19.8-42.2,42.2v369.6l81.9-81.9h287.7c24.8,0,42.2-19.8,42.2-42.2V272.1
	C1436.1,249.8,1416.3,230,1391.5,230z M1247.6,480.5h-37.2v-34.7h37.2V480.5z M1247.6,420.9h-37.2V292h37.2V420.9z"/>
<path fill="#700068" d="M548.2,671.5c0-44.6-27.3-84.3-69.4-99.2c29.8-19.8,37.2-59.5,17.4-89.3c-19.8-29.8-59.5-37.2-89.3-17.4
	s-37.2,59.5-17.4,89.3c5,7.4,9.9,14.9,17.4,17.4c-42.2,14.9-69.4,54.6-69.4,99.2v19.8h210.8V671.5L548.2,671.5z"/>
<path fill="#700068" d="M250.5,401.1c0-44.6-27.3-84.3-69.4-99.2c29.8-22.3,37.2-62,17.4-91.8s-59.5-37.2-89.3-17.4
	S71.9,252.3,91.8,282c5,7.4,9.9,14.9,17.4,17.4C67,314.3,39.7,354,39.7,398.6v22.3h210.8V401.1z"/>
<polygon fill="#700068" points="372.1,175.4 297.6,249.8 372.1,326.7 389.4,311.8 337.3,262.2 486.1,262.2 486.1,408.5 508.5,408.5 
	508.5,239.9 337.3,239.9 389.4,190.3 "/>
<polygon fill="#700068" points="218.3,696.3 295.2,621.9 218.3,545 203.4,559.8 250.5,609.5 106.7,609.5 106.7,463.1 81.9,463.1 
	81.9,631.8 250.5,631.8 203.4,681.4 "/>
</svg>
