<?xml version="1.0" encoding="utf-8"?>
<!-- Generator: Adobe Illustrator 21.1.0, SVG Export Plug-In . SVG Version: 6.00 Build 0)  -->
<svg version="1.1"
	 id="svg2" inkscape:version="0.48.3.1 r9886" sodipodi:docname="icon.eps" xmlns:cc="http://creativecommons.org/ns#" xmlns:dc="http://purl.org/dc/elements/1.1/" xmlns:inkscape="http://www.inkscape.org/namespaces/inkscape" xmlns:rdf="http://www.w3.org/1999/02/22-rdf-syntax-ns#" xmlns:sodipodi="http://sodipodi.sourceforge.net/DTD/sodipodi-0.dtd" xmlns:svg="http://www.w3.org/2000/svg"
	 xmlns="http://www.w3.org/2000/svg" xmlns:xlink="http://www.w3.org/1999/xlink" x="0px" y="0px" viewBox="0 0 30 30"
	 style="enable-background:new 0 0 30 30;" xml:space="preserve">
<style type="text/css">
	.st0{clip-path:url(#SVGID_2_);}
	.st1{clip-path:url(#SVGID_4_);}
	.st2{clip-path:url(#SVGID_6_);}
	.st3{clip-path:url(#SVGID_8_);}
	.st4{clip-path:url(#SVGID_10_);}
	.st5{clip-path:url(#SVGID_12_);}
	.st6{clip-path:url(#SVGID_14_);}
	.st7{clip-path:url(#SVGID_16_);}
	.st8{fill:none;stroke:#700068;stroke-width:0.5;stroke-miterlimit:10;}
	.st9{fill:#700068;}
</style>
<sodipodi:namedview  bordercolor="#666666" borderopacity="1" gridtolerance="10" guidetolerance="10" id="namedview4" inkscape:current-layer="g10" inkscape:cx="15" inkscape:cy="15" inkscape:pageopacity="0" inkscape:pageshadow="2" inkscape:window-height="1026" inkscape:window-maximized="1" inkscape:window-width="1623" inkscape:window-x="57" inkscape:window-y="24" inkscape:zoom="1.39" objecttolerance="10" pagecolor="#ffffff" showgrid="false">
	</sodipodi:namedview>
<g id="g10" transform="matrix(1.25,0,0,-1.25,0,30)" inkscape:groupmode="layer" inkscape:label="ink_ext_XXXXXX">
	<g id="g3123">
		<g id="g18" transform="scale(0.1,0.1)">
			<g>
				<g>
					<g>
						<g>
							<g>
								<defs>
									<path id="SVGID_1_" d="M-275.8,166.9c0,29.3,29.4,53.2,65.5,53.2s65.4-23.8,65.4-53.2c0-29.3-29.4-53.2-65.4-53.2
										C-246.4,113.8-275.8,137.6-275.8,166.9"/>
								</defs>
								<clipPath id="SVGID_2_">
									<use xlink:href="#SVGID_1_"  style="overflow:visible;"/>
								</clipPath>
								<g id="g20" class="st0">
									<g id="g26" transform="scale(240,240)">
										
											<image style="overflow:visible;enable-background:new    ;" width="24" height="24" id="image28" xlink:href="701CBCF756386879.png"  transform="matrix(4.166667e-02 0 0 -4.166667e-02 -1.5435 1)">
										</image>
									</g>
								</g>
							</g>
						</g>
					</g>
				</g>
			</g>
		</g>
		<g id="g30" transform="scale(0.1,0.1)">
			<g>
				<g>
					<g>
						<g>
							<g>
								<defs>
									<circle id="SVGID_3_" cx="-210.3" cy="167" r="0"/>
								</defs>
								<clipPath id="SVGID_4_">
									<use xlink:href="#SVGID_3_"  style="overflow:visible;"/>
								</clipPath>
								<g id="g32" class="st1">
									<g id="g38" transform="scale(240,240)">
										
											<image style="overflow:visible;enable-background:new    ;" width="24" height="24" id="image40" xlink:href="701CBCF75638687B.png"  transform="matrix(4.166667e-02 0 0 -4.166667e-02 -1.5435 1)">
										</image>
									</g>
								</g>
							</g>
						</g>
					</g>
				</g>
			</g>
		</g>
		<g id="g42" transform="scale(0.1,0.1)">
			<g>
				<g>
					<g>
						<g>
							<g>
								<defs>
									<path id="SVGID_5_" d="M-305.1,14.2c-16.4,0-31.1,6.6-41.2,18.6c-9.1,10.7-14.1,25-14.1,40.1c0,7.1,1.1,14.1,3.3,20.9
										l5.5,16.6c7.7,23.4,31.3,40.3,56.1,40.3h23.7c24.8,0,48.4-17,56.1-40.3l5.5-16.6c2.2-6.7,3.3-13.7,3.3-20.9
										c0-15.1-5-29.4-14.1-40.1c-10.1-12-24.8-18.6-41.2-18.6L-305.1,14.2"/>
								</defs>
								<clipPath id="SVGID_6_">
									<use xlink:href="#SVGID_5_"  style="overflow:visible;"/>
								</clipPath>
								<g id="g44" class="st2">
									<g id="g50" transform="scale(240,240)">
										
											<image style="overflow:visible;enable-background:new    ;" width="24" height="24" id="image52" xlink:href="701CBCF75638687E.png"  transform="matrix(4.166667e-02 0 0 -4.166667e-02 -1.5435 1)">
										</image>
									</g>
								</g>
							</g>
						</g>
					</g>
				</g>
			</g>
		</g>
		<g id="g54" transform="scale(0.1,0.1)">
			<g>
				<g>
					<g>
						<g>
							<g>
								<defs>
									<path id="SVGID_7_" d="M-295.4,140.6h23.7c19.6,0,39.9-13.3,46.6-33.5l5.5-16.6c9.8-29.7-6.3-66.4-42.5-66.4h-43
										c-36.2,0-52.3,36.7-42.5,66.4l5.5,16.6C-335.3,127.3-315,140.6-295.4,140.6z"/>
								</defs>
								<clipPath id="SVGID_8_">
									<use xlink:href="#SVGID_7_"  style="overflow:visible;"/>
								</clipPath>
								<g id="g56" class="st3">
									<g id="g62" transform="scale(240,240)">
										
											<image style="overflow:visible;enable-background:new    ;" width="24" height="24" id="image64" xlink:href="701CBCF75638687F.png"  transform="matrix(4.166667e-02 0 0 -4.166667e-02 -1.5435 1)">
										</image>
									</g>
								</g>
							</g>
						</g>
					</g>
				</g>
			</g>
		</g>
		<g id="g66" transform="scale(0.1,0.1)">
			<g>
				<g>
					<g>
						<g>
							<g>
								<defs>
									<circle id="SVGID_9_" cx="-289" cy="105.8" r="0"/>
								</defs>
								<clipPath id="SVGID_10_">
									<use xlink:href="#SVGID_9_"  style="overflow:visible;"/>
								</clipPath>
								<g id="g68" class="st4">
									<g id="g74" transform="scale(240,240)">
										
											<image style="overflow:visible;enable-background:new    ;" width="24" height="24" id="image76" xlink:href="701CBCF75638687A.png"  transform="matrix(4.166667e-02 0 0 -4.166667e-02 -1.5435 1)">
										</image>
									</g>
								</g>
							</g>
						</g>
					</g>
				</g>
			</g>
		</g>
		<g id="g78" transform="scale(0.1,0.1)">
			<g>
				<g>
					<g>
						<g>
							<g>
								<defs>
									<circle id="SVGID_11_" cx="-284.6" cy="99.8" r="0"/>
								</defs>
								<clipPath id="SVGID_12_">
									<use xlink:href="#SVGID_11_"  style="overflow:visible;"/>
								</clipPath>
								<g id="g80" class="st5">
									<g id="g86" transform="scale(240,240)">
										
											<image style="overflow:visible;enable-background:new    ;" width="24" height="24" id="image88" xlink:href="701CBCF756386875.png"  transform="matrix(4.166667e-02 0 0 -4.166667e-02 -1.5435 1)">
										</image>
									</g>
								</g>
							</g>
						</g>
					</g>
				</g>
			</g>
		</g>
		<g id="g90" transform="scale(0.1,0.1)">
			<g>
				<g>
					<g>
						<g>
							<g>
								<defs>
									<path id="SVGID_13_" d="M-337.1,170.3c0,29.7,23.5,53.9,52.4,53.9s52.4-24.2,52.4-53.9s-23.5-53.9-52.4-53.9
										C-313.6,116.4-337.1,140.6-337.1,170.3"/>
								</defs>
								<clipPath id="SVGID_14_">
									<use xlink:href="#SVGID_13_"  style="overflow:visible;"/>
								</clipPath>
								<g id="g92" class="st6">
									<g id="g98" transform="scale(240,240)">
										
											<image style="overflow:visible;enable-background:new    ;" width="24" height="24" id="image100" xlink:href="701CBCF756386876.png"  transform="matrix(4.166667e-02 0 0 -4.166667e-02 -1.5435 1)">
										</image>
									</g>
								</g>
							</g>
						</g>
					</g>
				</g>
			</g>
		</g>
		<g id="g102" transform="scale(0.1,0.1)">
			<g>
				<g>
					<g>
						<g>
							<g>
								<defs>
									<circle id="SVGID_15_" cx="-284.8" cy="170.3" r="0"/>
								</defs>
								<clipPath id="SVGID_16_">
									<use xlink:href="#SVGID_15_"  style="overflow:visible;"/>
								</clipPath>
								<g id="g104" class="st7">
									<g id="g110" transform="scale(240,240)">
										
											<image style="overflow:visible;enable-background:new    ;" width="24" height="24" id="image112" xlink:href="701CBCF756386877.png"  transform="matrix(4.166667e-02 0 0 -4.166667e-02 -1.5435 1)">
										</image>
									</g>
								</g>
							</g>
						</g>
					</g>
				</g>
			</g>
		</g>
	</g>
</g>
<path class="st8" d="M14.3,18.5l-1.1-2.1v-0.7c0,0,0,0,0,0c0-2.8-2.2-5-5-5s-5,2.2-5,5c0,1.4,0.6,2.7,1.6,3.6v4.5h5.9v-1.6h1.4
	c0.6,0,1-0.5,1-1v-1.8h0.5C14.3,19.4,14.6,19,14.3,18.5z"/>
<path class="st9" d="M16.4,19.4h0.5v1.8c0,0.6,0.5,1,1,1h1.4v1.6h5.9v-4.5c1-0.9,1.6-2.2,1.6-3.6c0-2.8-2.2-5-5-5s-5,2.2-5,5
	c0,0,0,0,0,0v0.7l-1.1,2.1C15.5,19,15.8,19.4,16.4,19.4z"/>
<path class="st8" d="M20.2,7.1c0-1.8-2-3.2-4.5-3.2s-4.5,1.5-4.5,3.2c0,1.1,0.7,2,1.8,2.6c-0.1,0.4-0.4,0.9-0.8,1.4
	c-0.2,0.2,0,0.5,0.2,0.4c1-0.2,2-0.7,2.7-1.1c0.2,0,0.4,0,0.5,0C18.2,10.4,20.2,8.9,20.2,7.1z"/>
<path class="st9" d="M13.5,7.8c-0.4,0-0.6-0.3-0.6-0.6c0-0.4,0.3-0.6,0.6-0.6c0.4,0,0.6,0.3,0.6,0.6C14.2,7.5,14,7.8,13.5,7.8z"/>
<path class="st9" d="M15.7,7.8c-0.4,0-0.6-0.3-0.6-0.6c0-0.4,0.2-0.6,0.6-0.6c0.4,0,0.6,0.3,0.6,0.6C16.4,7.5,16.1,7.8,15.7,7.8z"/>
<path class="st9" d="M17.9,7.8c-0.4,0-0.6-0.3-0.6-0.6c0-0.4,0.3-0.6,0.6-0.6c0.4,0,0.6,0.3,0.6,0.6C18.4,7.5,18.2,7.8,17.9,7.8z"/>
</svg>
