<?xml version="1.0" encoding="utf-8"?>
<!-- Generator: Adobe Illustrator 18.1.1, SVG Export Plug-In . SVG Version: 6.00 Build 0)  -->
<svg version="1.1" id="Layer_1" xmlns="http://www.w3.org/2000/svg" xmlns:xlink="http://www.w3.org/1999/xlink" x="0px" y="0px"
	 viewBox="0 0 595.3 841.9" enable-background="new 0 0 595.3 841.9" xml:space="preserve">
<linearGradient id="SVGID_1_" gradientUnits="userSpaceOnUse" x1="-19.2" y1="3804.8398" x2="-19.2" y2="3821.5769" gradientTransform="matrix(22.8954 0 0 22.8954 0 -86916.7031)">
	<stop  offset="0" style="stop-color:#95BFF8"/>
	<stop  offset="0.557" style="stop-color:#84ADEF"/>
	<stop  offset="1" style="stop-color:#7CA4EB"/>
</linearGradient>
<path fill="url(#SVGID_1_)" d="M-396.1,196.6H-593v382.4h306.8V322.5"/>
<linearGradient id="SVGID_2_" gradientUnits="userSpaceOnUse" x1="-19.25" y1="3805.6777" x2="-19.25" y2="3820.741" gradientTransform="matrix(22.8954 0 0 22.8954 0 -86916.7031)">
	<stop  offset="0" style="stop-color:#E7F4FC"/>
	<stop  offset="1" style="stop-color:#DEEFFC"/>
</linearGradient>
<path fill="url(#SVGID_2_)" d="M-574.7,560.6V214.9h169.4l98.5,114.5v231.2"/>
<linearGradient id="SVGID_3_" gradientUnits="userSpaceOnUse" x1="-19.3" y1="3806.5144" x2="-19.3" y2="3819.9146" gradientTransform="matrix(22.8954 0 0 22.8954 0 -86916.7031)">
	<stop  offset="0" style="stop-color:#CEE9F9"/>
	<stop  offset="1" style="stop-color:#BBDFF8"/>
</linearGradient>
<path fill="url(#SVGID_3_)" d="M-556.4,542.3V235.5h142l87,100.7v206.1"/>
<linearGradient id="SVGID_4_" gradientUnits="userSpaceOnUse" x1="-15.7" y1="3804.8408" x2="-15.7" y2="3811.3557" gradientTransform="matrix(22.8954 0 0 22.8954 0 -86916.7031)">
	<stop  offset="0" style="stop-color:#95BFF8"/>
	<stop  offset="0.557" style="stop-color:#84ADEF"/>
	<stop  offset="1" style="stop-color:#7CA4EB"/>
</linearGradient>
<path fill="url(#SVGID_4_)" d="M-425.9,340.8c0,0,100.7-25.2,137.4,6.9v-22.9l-112.2-125.9h-29.8
	C-386.9,253.8-425.9,340.8-425.9,340.8z"/>
<linearGradient id="SVGID_5_" gradientUnits="userSpaceOnUse" x1="-17.3006" y1="3809.9404" x2="-15.3834" y2="3808.0232" gradientTransform="matrix(22.8954 0 0 22.8954 0 -86916.7031)">
	<stop  offset="0" style="stop-color:#E7F4FC"/>
	<stop  offset="0.518" style="stop-color:#E5F3FC"/>
	<stop  offset="0.705" style="stop-color:#DEF0FB"/>
	<stop  offset="0.837" style="stop-color:#D3EBFA"/>
	<stop  offset="0.872" style="stop-color:#CEE9F9"/>
	<stop  offset="1" style="stop-color:#BDD8F0"/>
</linearGradient>
<path fill="url(#SVGID_5_)" d="M-396.1,315.6c6.9-22.9,9.2-54.9,2.3-84.7l75.6,84.7c-6.9-2.3-18.3-4.6-29.8-4.6
	C-366.3,311-382.4,313.3-396.1,315.6z"/>
<linearGradient id="SVGID_6_" gradientUnits="userSpaceOnUse" x1="-20.8966" y1="3815.0227" x2="-20.8966" y2="3824.8284" gradientTransform="matrix(22.8954 0 0 22.8954 0 -86916.7031)">
	<stop  offset="0" style="stop-color:#DDA976"/>
	<stop  offset="1" style="stop-color:#9F6B37"/>
</linearGradient>
<path fill="url(#SVGID_6_)" d="M-517.4,558.3c-6.9-41.2,180.9,9.2,178.6-27.5c0-16-160.3-64.1-217.5-77.8
	c-18.3-4.6-123.6-22.9-123.6-22.9c-4.6,2.3-25.2,64.1-27.5,100.7c9.2,6.9,139.7,128.2,192.3,123.6s272.5-68.7,265.6-89.3
	C-263.3,524-510.6,604.1-517.4,558.3z"/>
<linearGradient id="SVGID_7_" gradientUnits="userSpaceOnUse" x1="-21.3483" y1="3815.9541" x2="-21.3483" y2="3824.0332" gradientTransform="matrix(22.8954 0 0 22.8954 0 -86916.7031)">
	<stop  offset="0" style="stop-color:#FFDDAA"/>
	<stop  offset="1" style="stop-color:#E3B17E"/>
</linearGradient>
<path fill="url(#SVGID_7_)" d="M-675.4,530.8c-6.9-4.6-9.2-6.9-13.7-9.2c2.3-22.9,11.4-52.7,18.3-68.7
	c34.3,6.9,98.5,18.3,109.9,18.3c50.4,11.4,180.9,43.5,185.5,57.2c9.2,20.6-158-36.6-155.7,32.1c4.6,66.4,238.1-11.4,242.7,9.2
	c4.6,13.7-194.6,68.7-229,66.4C-556.4,633.9-645.6,556-675.4,530.8z"/>
<linearGradient id="SVGID_8_" gradientUnits="userSpaceOnUse" x1="-24.6" y1="3816.9031" x2="-24.6" y2="3823.1963" gradientTransform="matrix(22.8954 0 0 22.8954 0 -86916.7031)">
	<stop  offset="0" style="stop-color:#F1C592"/>
	<stop  offset="1" style="stop-color:#E1AF7C"/>
</linearGradient>
<path fill="url(#SVGID_8_)" d="M-515.1,615.6c-16-2.3-52.7-18.3-146.5-100.7l-6.9-6.9c2.3-13.7,6.9-27.5,9.2-41.2
	c41.2,6.9,82.4,16,89.3,18.3c29.8,6.9,52.7,13.7,73.3,18.3c-18.3,2.3-34.3,6.9-43.5,18.3c-6.9,6.9-13.7,18.3-11.4,36.6
	c2.3,20.6,16,45.8,75.6,45.8h18.3C-483.1,613.3-503.7,615.6-515.1,615.6z"/>
<path fill="#700068" d="M354.9,304.2v-84.7l89.3,103h-75.6C361.7,322.5,354.9,315.6,354.9,304.2z"/>
<path fill="#700068" d="M471.6,382L343.4,510.2l36.6,36.6l128.2-128.2L471.6,382z"/>
<path fill="#700068" d="M334.3,524l-20.6,50.4l50.4-20.6L334.3,524z"/>
<path fill="#700068" d="M444.2,391.2v-54.9h-84.7c-9.2,0-16-6.9-16-16V219.5H87v421.3h357.2V501.1l-57.2,57.2l-98.5,43.5l43.5-98.5
	L444.2,391.2z M128.2,354.5H364v18.3H128.2V354.5z M128.2,411.8H364v18.3H128.2V411.8z M128.2,469h153.4v18.3H128.2V469z
	 M128.2,526.3h135.1v18.3H128.2V526.3z"/>
</svg>
