<?xml version="1.0" encoding="utf-8"?>
<!-- Generator: Adobe Illustrator 18.1.1, SVG Export Plug-In . SVG Version: 6.00 Build 0)  -->
<svg version="1.1" id="Layer_1" xmlns="http://www.w3.org/2000/svg" xmlns:xlink="http://www.w3.org/1999/xlink" x="0px" y="0px"
	 viewBox="0 0 595.3 841.9" enable-background="new 0 0 595.3 841.9" xml:space="preserve">
<circle fill="#700068" cx="297.6" cy="420.9" r="248"/>
<g id="New_Symbol">
	<g>
		<path fill="#FFFFFF" d="M396.9,483c0,17.4-7.4,32.2-19.8,44.6c-12.4,12.4-27.3,19.8-44.6,19.8H258c-17.4,0-32.2-7.4-44.6-19.8
			s-19.8-27.3-19.8-44.6V294.4c14.9,0,24.8,7.4,32.2,19.8c12.4,14.9,19.8,32.2,19.8,47.1V483c0,9.9,5,14.9,14.9,14.9h74.4
			c9.9,0,14.9-5,14.9-14.9v-57c0-7.4-5-14.9-14.9-14.9H320c-19.8,0-32.2-7.4-47.1-14.9c-12.4-7.4-19.8-19.8-19.8-32.2h81.9
			c17.4,0,32.2,7.4,44.6,19.8c12.4,12.4,19.8,27.3,19.8,44.6L396.9,483L396.9,483z"/>
	</g>
</g>
</svg>
