<?xml version="1.0" encoding="utf-8"?>
<!-- Generator: Adobe Illustrator 21.1.0, SVG Export Plug-In . SVG Version: 6.00 Build 0)  -->
<svg version="1.1" id="Layer_1" xmlns="http://www.w3.org/2000/svg" xmlns:xlink="http://www.w3.org/1999/xlink" x="0px" y="0px"
	 viewBox="0 0 24 24" style="enable-background:new 0 0 24 24;" xml:space="preserve">
<style type="text/css">
	.st0{fill:url(#SVGID_1_);}
	.st1{fill:url(#SVGID_2_);}
	.st2{fill:url(#SVGID_3_);}
	.st3{fill:url(#SVGID_4_);}
	.st4{fill:url(#SVGID_5_);}
	.st5{fill:#F2EFD5;}
	.st6{fill:url(#SVGID_6_);}
	.st7{fill:url(#SVGID_7_);}
	.st8{fill:#FFFFFF;}
	.st9{fill:#700068;stroke:#700068;stroke-miterlimit:10;}
</style>
<linearGradient id="SVGID_1_" gradientUnits="userSpaceOnUse" x1="-21.7" y1="1636" x2="-21.7" y2="1660" gradientTransform="matrix(1 0 0 1 0 -1636)">
	<stop  offset="0" style="stop-color:#F0A829"/>
	<stop  offset="1" style="stop-color:#C7671A"/>
</linearGradient>
<path class="st0" d="M-19.3,0l-13.8,13.9c-0.8,0.8-0.8,2.1,0,2.8l6.7,6.7c0.8,0.8,2,0.8,2.8,0L-9.7,9.6V0H-19.3z"/>
<linearGradient id="SVGID_2_" gradientUnits="userSpaceOnUse" x1="-21.7" y1="1637" x2="-21.7" y2="1659" gradientTransform="matrix(1 0 0 1 0 -1636)">
	<stop  offset="0" style="stop-color:#FFEBA8"/>
	<stop  offset="1" style="stop-color:#F8BE27"/>
</linearGradient>
<path class="st1" d="M-25,23c-0.3,0-0.5-0.1-0.7-0.3l-6.7-6.7c-0.2-0.2-0.3-0.4-0.3-0.7s0.1-0.5,0.3-0.7L-18.8,1h8.1v8.2l-13.6,13.5
	C-24.5,22.9-24.7,23-25,23z"/>
<linearGradient id="SVGID_3_" gradientUnits="userSpaceOnUse" x1="-21.7" y1="1638" x2="-21.7" y2="1658" gradientTransform="matrix(1 0 0 1 0 -1636)">
	<stop  offset="0" style="stop-color:#FFC30F"/>
	<stop  offset="1" style="stop-color:#F5AE0D"/>
</linearGradient>
<path class="st2" d="M-31.7,15.3L-18.4,2h6.7v6.8L-25,22"/>
<linearGradient id="SVGID_4_" gradientUnits="userSpaceOnUse" x1="-24.95" y1="1645.969" x2="-24.95" y2="1656.631" gradientTransform="matrix(1 0 0 1 0 -1636)">
	<stop  offset="0" style="stop-color:#76A1F0"/>
	<stop  offset="1" style="stop-color:#6B90D5"/>
</linearGradient>
<path class="st3" d="M-30.3,15.3L-25,10l5.4,5.3l-5.4,5.3"/>
<linearGradient id="SVGID_5_" gradientUnits="userSpaceOnUse" x1="-1513.29" y1="1984.9735" x2="-1513.29" y2="1986.812" gradientTransform="matrix(0.7071 -0.7071 0.7071 0.7071 -357.8528 -2457.6475)">
	<stop  offset="0" style="stop-color:#57C3F6"/>
	<stop  offset="0.165" style="stop-color:#83D3F8"/>
	<stop  offset="0.355" style="stop-color:#AFE3FB"/>
	<stop  offset="0.54" style="stop-color:#D2EFFD"/>
	<stop  offset="0.713" style="stop-color:#EBF8FE"/>
	<stop  offset="0.871" style="stop-color:#FAFDFF"/>
	<stop  offset="1" style="stop-color:#FFFFFF"/>
</linearGradient>
<path class="st4" d="M-26.3,17.9l1.3,1.3l3.9-3.9l-1.3-1.3"/>
<path class="st5" d="M-21.1,15.3l-0.3-0.3c-0.3,0.2-0.8,0.5-1.4,1.1c-1.1,0.9-1,0.5-2,0.9c-0.4,0.2-0.9,0.6-1.4,1l1.2,1.2
	C-25,19.2-21.1,15.3-21.1,15.3z"/>
<linearGradient id="SVGID_6_" gradientUnits="userSpaceOnUse" x1="-1516.0062" y1="1986.0563" x2="-1510.4902" y2="1986.0563" gradientTransform="matrix(0.7071 -0.7071 0.7071 0.7071 -357.8528 -2457.6475)">
	<stop  offset="0" style="stop-color:#F8E5B5"/>
	<stop  offset="1" style="stop-color:#F9E5B6"/>
</linearGradient>
<path class="st6" d="M-21.1,15.3l-0.2-0.2c-0.4,0.2-0.6,0.6-1.3,1.2c-1.1,0.9-1.1,0.3-2.1,0.7c-0.4,0.2-0.9,0.6-1.3,1.1l1.1,1.1
	C-24.9,19.2-21.1,15.3-21.1,15.3z"/>
<linearGradient id="SVGID_7_" gradientUnits="userSpaceOnUse" x1="-1512.2716" y1="1980.5801" x2="-1514.3232" y2="1985.6569" gradientTransform="matrix(0.7071 -0.7071 0.7071 0.7071 -357.8528 -2457.6475)">
	<stop  offset="0" style="stop-color:#57C3F6"/>
	<stop  offset="5.000000e-03" style="stop-color:#59C4F6"/>
	<stop  offset="0.124" style="stop-color:#85D3F8"/>
	<stop  offset="0.247" style="stop-color:#AAE1FA"/>
	<stop  offset="0.376" style="stop-color:#C9ECFC"/>
	<stop  offset="0.51" style="stop-color:#E1F4FD"/>
	<stop  offset="0.652" style="stop-color:#F2FAFE"/>
	<stop  offset="0.807" style="stop-color:#FCFEFF"/>
	<stop  offset="1" style="stop-color:#FFFFFF"/>
</linearGradient>
<path class="st7" d="M-28.9,15.3l2.6,2.6l3.9-3.9l-2.6-2.6"/>
<path class="st8" d="M-24.7,11.6C-25,11.8-25,12-25,12s-0.4-0.1-0.6,0.4c-0.1,0.4,0.3,0.5,0.3,0.5l-0.1,0.1c0,0.1,0.1,0.1,0.1,0.1
	s-0.2,0.1-0.1,0.4c0.1,0.3,0.3,0.3,0.3,0.3s-0.1,0.5,0.4,0.6c0.4,0.1,0.5-0.3,0.5-0.3s0.3,0,0.6-0.2c0.3-0.2,0.4-0.5,0.4-0.5h0.2
	L-24.7,11.6z M-25.8,14.5c0,0-0.1,0-0.2,0.1c0,0.1,0.1,0.2,0.1,0.2s-0.1,0,0,0.1c0,0.1,0.1,0.1,0.1,0.1s0,0.1,0.1,0.2
	c0.1,0,0.1-0.1,0.1-0.1h0.2l0.1-0.1c0,0,0.1,0,0.1-0.1v-0.2c0,0,0.2,0,0.1-0.2c-0.1-0.1-0.2,0-0.2,0l-0.1-0.1
	c-0.1,0-0.1,0.1-0.1,0.1h-0.1c0,0-0.1-0.2-0.2-0.2C-25.9,14.4-25.8,14.5-25.8,14.5z M-14.1,8.4l-5.5,5.5l-0.7-0.7l5.5-5.5
	C-14.8,7.7-14.1,8.4-14.1,8.4z M-16.2,6.3l-5.5,5.5l0.7,0.7l5.5-5.5L-16.2,6.3z M-17.6,4.9l-5.5,5.5l0.7,0.7l5.5-5.5
	C-16.9,5.6-17.6,4.9-17.6,4.9z"/>
<ellipse class="st8" cx="-14" cy="4.3" rx="1.3" ry="1.3"/>
<path class="st9" d="M13.3,3.1L13.3,3.1l-9.8,9.7c-0.2,0.2-0.2,0.6,0,0.9l5.9,5.9c0.2,0.2,0.6,0.2,0.9,0l9.8-9.9V3.1H13.3z"/>
<rect x="5.7" y="9" transform="matrix(0.7071 -0.7071 0.7071 0.7071 -3.7353 10.759)" class="st8" width="10.8" height="1.8"/>
<rect x="7.6" y="11.1" transform="matrix(0.7071 -0.7071 0.7071 0.7071 -4.6603 12.7141)" class="st8" width="10.8" height="1.8"/>
<circle class="st8" cx="17.7" cy="5.5" r="1.3"/>
</svg>
