<?xml version="1.0" encoding="utf-8"?>
<!-- Generator: Adobe Illustrator 21.1.0, SVG Export Plug-In . SVG Version: 6.00 Build 0)  -->
<svg version="1.1" id="Layer_1" xmlns="http://www.w3.org/2000/svg" xmlns:xlink="http://www.w3.org/1999/xlink" x="0px" y="0px"
	 viewBox="0 0 24 24" style="enable-background:new 0 0 24 24;" xml:space="preserve">
<style type="text/css">
	.st0{fill:url(#SVGID_1_);}
	.st1{fill:url(#SVGID_2_);}
	.st2{fill:url(#SVGID_3_);}
	.st3{fill:url(#SVGID_4_);}
	.st4{fill:url(#SVGID_5_);}
	.st5{fill:url(#SVGID_6_);}
	.st6{fill:url(#SVGID_7_);}
	.st7{fill:#B3E710;}
	.st8{fill:url(#SVGID_8_);}
	.st9{fill:#700068;}
	.st10{fill:#FFFFFF;}
	.st11{font-family:'Arial-BoldMT';}
	.st12{font-size:4.5516px;}
</style>
<linearGradient id="SVGID_1_" gradientUnits="userSpaceOnUse" x1="-29.8" y1="-1612.11" x2="-29.8" y2="-1636.11" gradientTransform="matrix(1 0 0 -1 0 -1612.11)">
	<stop  offset="0" style="stop-color:#95BFF8"/>
	<stop  offset="0.557" style="stop-color:#84ADEF"/>
	<stop  offset="1" style="stop-color:#7CA4EB"/>
</linearGradient>
<path class="st0" d="M-27.4,0h-12.4v24h20V7.9"/>
<linearGradient id="SVGID_2_" gradientUnits="userSpaceOnUse" x1="-29.8" y1="-1613.11" x2="-29.8" y2="-1635.11" gradientTransform="matrix(1 0 0 -1 0 -1612.11)">
	<stop  offset="0" style="stop-color:#E7F4FC"/>
	<stop  offset="1" style="stop-color:#DEEFFC"/>
</linearGradient>
<path class="st1" d="M-27.8,1h-11v22h18V8.3"/>
<linearGradient id="SVGID_3_" gradientUnits="userSpaceOnUse" x1="-29.7" y1="-1614.11" x2="-29.7" y2="-1634.11" gradientTransform="matrix(1 0 0 -1 0 -1612.11)">
	<stop  offset="0" style="stop-color:#CEE9F9"/>
	<stop  offset="1" style="stop-color:#BBDFF8"/>
</linearGradient>
<path class="st2" d="M-28.1,2h-9.6v20h16V8.7"/>
<linearGradient id="SVGID_4_" gradientUnits="userSpaceOnUse" x1="-24.6" y1="-1612.11" x2="-24.6" y2="-1621.469" gradientTransform="matrix(1 0 0 -1 0 -1612.11)">
	<stop  offset="0" style="stop-color:#95BFF8"/>
	<stop  offset="0.557" style="stop-color:#84ADEF"/>
	<stop  offset="1" style="stop-color:#7CA4EB"/>
</linearGradient>
<path class="st3" d="M-28.8,9c0,0,5.2-1.5,9,0.4V7.9L-27.4,0h-2C-26.7,3.7-28.8,9-28.8,9z"/>
<linearGradient id="SVGID_5_" gradientUnits="userSpaceOnUse" x1="-27.3785" y1="-1619.7385" x2="-24.2505" y2="-1616.6105" gradientTransform="matrix(1 0 0 -1 0 -1612.11)">
	<stop  offset="0" style="stop-color:#E7F4FC"/>
	<stop  offset="0.518" style="stop-color:#E5F3FC"/>
	<stop  offset="0.705" style="stop-color:#DEF0FB"/>
	<stop  offset="0.837" style="stop-color:#D3EBFA"/>
	<stop  offset="0.872" style="stop-color:#CEE9F9"/>
	<stop  offset="1" style="stop-color:#BDD8F0"/>
</linearGradient>
<path class="st4" d="M-21.2,7.8c-0.9-0.2-2-0.3-3.1-0.3s-2.1,0.1-3,0.3c0.4-1.6,0.7-4.1-0.2-6.4L-21.2,7.8z"/>
<radialGradient id="SVGID_6_" cx="-34.219" cy="-1628.61" r="7" gradientTransform="matrix(1 0 0 -1 0 -1612.11)" gradientUnits="userSpaceOnUse">
	<stop  offset="0" style="stop-color:#8BB4F0"/>
	<stop  offset="7.700000e-02" style="stop-color:#88B1EF"/>
	<stop  offset="0.488" style="stop-color:#7FA7EC"/>
	<stop  offset="1" style="stop-color:#7CA4EB"/>
</radialGradient>
<path class="st5" d="M-34.2,23.5c-7.1-0.3-9.1-8.4-4.5-12.3c1.8-1.6,3.8-1.7,4.6-1.7c0.4,0,0.8,0,1.1,0.1c0.3,0,0.7,0.1,1,0.2
	c0.3,0.1,0.7,0.3,1,0.4l0.9,0.6c0.3,0.2,0.6,0.4,0.8,0.7c0.3,0.3,0.5,0.5,0.7,0.8l0.6,0.9c0.2,0.3,0.3,0.7,0.4,1s0.2,0.7,0.3,1.1
	c0.1,0.4,0.1,0.8,0.1,1.1s0,0.8-0.1,1.1c-0.1,0.4-0.1,0.7-0.3,1.1c-0.1,0.3-0.3,0.7-0.4,1l-0.6,0.9c-0.2,0.3-0.4,0.6-0.7,0.8
	c-0.3,0.3-0.5,0.5-0.8,0.7l-0.9,0.6c-0.3,0.2-0.7,0.3-1,0.4s-0.7,0.2-1.1,0.3C-33.5,23.5-33.8,23.5-34.2,23.5"/>
<radialGradient id="SVGID_7_" cx="-34.2172" cy="-1628.61" r="6.4836" gradientTransform="matrix(1 0 0 -1 0 -1612.11)" gradientUnits="userSpaceOnUse">
	<stop  offset="0" style="stop-color:#8BB4F0"/>
	<stop  offset="7.700000e-02" style="stop-color:#88B1EF"/>
	<stop  offset="0.488" style="stop-color:#7FA7EC"/>
	<stop  offset="1" style="stop-color:#7CA4EB"/>
</radialGradient>
<path class="st6" d="M-34.2,23c-6.5-0.3-8.4-7.8-4.2-11.4c1.7-1.5,3.5-1.6,4.2-1.6c0.4,0,0.7,0,1.1,0.1c0.3,0.1,0.7,0.1,1,0.2
	c0.3,0.1,0.6,0.2,0.9,0.4s0.6,0.3,0.9,0.5s0.5,0.4,0.8,0.6c0.2,0.2,0.5,0.5,0.6,0.8c0.2,0.3,0.4,0.6,0.5,0.9
	c0.1,0.3,0.3,0.6,0.4,0.9c0.1,0.3,0.2,0.7,0.2,1c0.1,0.3,0.1,0.7,0.1,1.1s0,0.7-0.1,1.1c-0.1,0.3-0.1,0.7-0.2,1s-0.2,0.6-0.4,0.9
	c-0.2,0.3-0.3,0.6-0.5,0.9s-0.4,0.5-0.6,0.8s-0.5,0.5-0.8,0.6c-0.3,0.2-0.6,0.4-0.9,0.5c-0.3,0.2-0.6,0.3-0.9,0.4s-0.7,0.2-1,0.2
	C-33.5,23-33.8,23-34.2,23"/>
<path class="st7" d="M-35.7,10.8v-0.1C-35.7,10.7-35.8,10.7-35.7,10.8c-0.1-0.1-0.1,0-0.2,0C-35.8,10.7-35.8,10.8-35.7,10.8
	C-35.8,10.8-35.7,10.8-35.7,10.8 M-38.8,13h3.6l0.4-0.1c0-0.1-0.3-0.1-0.4-0.1c0-0.1-0.2-0.2-0.1-0.4h-0.1c-0.1-0.1-0.3-0.1-0.4-0.1
	s-0.2-0.1-0.3-0.2h-0.2c0.1-0.1,0.1-0.1-0.1-0.2c0-0.2,0.2-0.3,0.4-0.5h0.1l-0.1-0.1c0,0,0.1,0.1,0.2,0v-0.1c0.1,0,0.1,0,0.2-0.1
	c-0.1,0-0.1-0.1-0.2-0.1c0.1,0,0.1,0,0.2,0.1c0,0,0.1,0,0.2-0.1h0.2v-0.1c0,0,0,0.1,0.1,0.1c0.1-0.1,0.1-0.1,0.2-0.1v-0.1v-0.1
	c-0.1,0-0.1-0.1-0.2,0l-0.2,0.2c-0.1,0,0-0.1,0-0.1c0.1,0,0.1,0,0-0.1c-0.1,0-0.1,0.1-0.1,0.1v-0.1h-0.1l0.1-0.1v-0.1
	c-0.1,0-0.2,0.1-0.2,0.1c-0.1,0-0.1,0-0.1,0.1l0,0l-0.3,0.2l0.1-0.1h-0.4c-0.2,0.1-0.2,0.1-0.3,0.2c0-0.1,0-0.1,0.1-0.1h-0.2
	c0.1,0,0.1,0,0.2-0.1c-0.1,0-0.1,0-0.1-0.1h-0.1l0,0l0.1-0.1c0,0-0.3,0.1-0.5,0.2h0.1c0.1,0,0.2,0.1,0.3,0l-0.1,0.2H-37h0.4v-0.1
	c0-0.1-0.1-0.2,0-0.2h-0.1v-0.1c-0.1,0-0.2,0.1-0.3,0.1c-0.3,0.1-0.6,0.4-0.9,0.5c-0.1,0.1-0.3,0.2-0.4,0.3h-0.1l-0.4,0.3l0.2-0.2
	l-0.1,0.1v0.1c0,0.1-0.1,0.1-0.1,0.2v0.1h0.1v0.1c-0.1,0-0.1,0-0.1,0.1c0-0.1,0-0.1-0.1,0c0,0.1-0.1,0.1-0.1,0.1h0.1
	c0,0.1-0.1,0.1-0.1,0.2v0.2c0,0,0,0.3-0.1,0.3V13v-0.1h-0.1l-0.1,0.1 M-33.4,10.4l-0.1-0.1C-33.5,10.4-33.5,10.4-33.4,10.4
	C-33.5,10.4-33.5,10.4-33.4,10.4C-33.5,10.5-33.5,10.5-33.4,10.4C-33.5,10.5-33.5,10.5-33.4,10.4C-33.5,10.5-33.4,10.5-33.4,10.4
	 M-35.8,10.7C-35.8,10.6-35.8,10.6-35.8,10.7v-0.1l0.1-0.1l0.1-0.1c-0.1,0-0.1,0.1-0.2,0.1l0.1-0.1l-0.1,0.1l0,0c0,0,0.1,0,0.1-0.1
	c0,0-0.3,0.1-0.4,0.1h0.2h-0.2v0.1c0,0-0.1,0-0.1,0.1H-35.8c0,0.1,0.1,0.1,0.1,0.1C-35.9,10.7-35.9,10.7-35.8,10.7L-35.8,10.7
	L-35.8,10.7 M-33.5,11L-33.5,11h-0.2l-0.1-0.1H-34c0-0.1-0.1,0-0.1-0.1h0.1c0,0-0.1,0-0.1-0.1h-0.1h-0.1h-0.1h-0.1h0.1l-0.1-0.1
	c0,0,0,0.1-0.1,0.1h-0.1h0.1c0,0,0-0.1-0.2,0h-0.1H-35l0,0v-0.1l0.1-0.1H-35c-0.1,0-0.2,0.1-0.2,0.1s-0.1,0-0.1,0.1l0,0
	c0,0.1,0.1,0.1,0.1,0.1h0.2c0,0,0.1,0,0.1,0.1l0.1,0.1h-0.1h0.2v0.1l-0.1,0.1h-0.1c0,0,0.1,0,0.1,0.1h-0.1c-0.1-0.1-0.1,0-0.1,0
	c-0.1,0-0.1,0-0.1,0.1h0.4l0.1,0.1c0,0.1,0.1,0,0.1,0.1c0,0,0.1,0,0.1,0.1h0.2c0-0.1-0.1-0.1-0.2-0.1c-0.1,0-0.1,0-0.1-0.1h0.1
	l0.1,0.1h0.1c0,0,0.1,0,0.1,0.1v-0.1l-0.1-0.1c0,0,0,0.1,0.1,0.1l-0.1-0.1c0,0-0.1,0-0.1-0.1c0,0,0-0.1-0.1-0.1v-0.1h0.1
	c0.5-0.2,0.5-0.2,0.6-0.1c0,0,0,0.1,0.1,0c0,0.1,0,0.1,0.1,0.1v-0.1L-33.5,11 M-35.3,10.4C-35.2,10.4-35.3,10.4-35.3,10.4
	c0-0.1,0.1-0.1,0.1-0.1h-0.1h-0.1L-35.3,10.4C-35.4,10.3-35.4,10.4-35.3,10.4c-0.2,0-0.2,0.1-0.2,0.1v0.1h0.1
	C-35.5,10.5-35.5,10.5-35.3,10.4C-35.5,10.5-35.3,10.5-35.3,10.4 M-35,10.3L-35,10.3L-35,10.3h-0.2h-0.1c0,0,0,0.1-0.1,0.1h0.2
	L-35,10.3 M-35.8,10.3L-35.8,10.3L-35.8,10.3L-35.8,10.3L-35.8,10.3L-35.8,10.3L-35.8,10.3H-36c-0.1,0-0.1,0-0.2,0.1
	c0,0-0.1,0-0.1,0.1h-0.1c0,0-0.1,0-0.1,0.1h0.1c0.1,0,0.1-0.1,0.2-0.1h0.1C-36,10.4-35.8,10.4-35.8,10.3 M-34.5,10.2h-0.2h0.1
	l-0.1,0.1h0.2C-34.7,10.3-34.7,10.3-34.5,10.2 M-35,10.2C-35,10.1-35,10.1-35,10.2C-35,10.1-35,10.1-35,10.2
	C-35,10.1-35,10.1-35,10.2C-35,10.1-35,10.1-35,10.2C-35,10.1-35,10.1-35,10.2C-35,10.1-35,10.1-35,10.2L-35,10.2L-35,10.2
	C-35,10.1-35,10.2-35,10.2L-35,10.2L-35,10.2L-35,10.2L-35,10.2h-0.2H-35 M-35.2,10.2L-35.2,10.2L-35.2,10.2L-35.2,10.2
	c0,0,0.1,0,0.1-0.1L-35.2,10.2L-35.2,10.2L-35.2,10.2L-35.2,10.2L-35.2,10.2L-35.2,10.2h-0.2h-0.1H-35.2 M-34.8,10.1L-34.8,10.1
	L-34.8,10.1 M-35.2,10.1C-35,10.1-35,10.1-35.2,10.1C-35,10.1-35,10.1-35.2,10.1C-35,10.1-35.2,10.1-35.2,10.1
	c-0.1,0-0.3,0.1-0.3,0.1h-0.1h0.2L-35.2,10.1 M-35,10.1L-35,10.1L-35,10.1 M-34.7,10.1C-34.7,10-34.7,10-34.7,10.1
	C-34.7,10-34.7,10-34.7,10.1C-34.7,10-34.7,10-34.7,10.1C-34.8,10.1-34.8,10.1-34.7,10.1 M-34.8,10.1h0.2
	C-34.7,10-34.8,10.1-34.8,10.1C-34.8,10-34.8,10.1-34.8,10.1 M-34.5,10C-34.5,10-34.3,10-34.5,10C-34.3,10-34.5,10-34.5,10
	S-34.3,10-34.5,10C-34.3,10-34.3,10-34.5,10C-34.3,10-34.3,10-34.5,10C-34.3,10-34.3,10-34.5,10C-34.3,10-34.3,10-34.5,10
	C-34.3,10-34.3,10-34.5,10C-34.3,10-34.3,10-34.5,10C-34.3,10-34.3,10-34.5,10C-34.3,10-34.3,10-34.5,10C-34.3,10-34.3,10-34.5,10
	C-34.3,10-34.3,10-34.5,10C-34.3,10-34.3,10-34.5,10L-34.5,10C-34.3,10-34.3,10-34.5,10h-0.2C-34.5,10.1-34.5,10.1-34.5,10
	C-34.5,10.1-34.5,10-34.5,10 M-34.2,10L-34.2,10L-34.2,10C-34.3,10-34.3,10-34.2,10L-34.2,10h-0.2h-0.1H-34.2
	C-34.3,10.1-34.3,10.1-34.2,10C-34.3,10.1-34.3,10.1-34.2,10C-34.3,10.1-34.3,10.1-34.2,10C-34.3,10.1-34.2,10-34.2,10 M-32.8,11.2
	c-0.4-0.7-0.9-1.2-1.5-1.2h0.3h-0.2h-0.2h0.1h-0.1h-0.1h0.1l0.1-0.1h-0.1l-0.1,0.1h0.1V9.9h0.1c0,0-0.1-0.1-0.1,0h0.2
	C-32.8,11.1-32.8,11.1-32.8,11.2C-32.8,11.1-32.8,11.1-32.8,11.2L-32.8,11.2L-32.8,11.2L-32.8,11.2L-32.8,11.2L-32.8,11.2
	L-32.8,11.2L-32.8,11.2L-32.8,11.2L-32.8,11.2L-32.8,11.2"/>
<path class="st7" d="M-32.3,20.1h-0.2v0.1C-32.5,20.2-32.5,20.2-32.3,20.1 M-33,22.1c0.3-0.5,0.6-1.2,0.8-2h-0.1
	c-0.1,0-0.1,0.1-0.2,0.2h-0.1v-0.1h-0.1c0,0,0-0.1,0.1-0.1h-3.1v0.3c0.1,0.1,0.1,0,0.1,0c0.1,0.1-0.1,0.1-0.1,0.2l0.1,0.1
	c0.1,0.1,0.2,0.1,0.6,0.7c0.1,0.2,0.4,0.2,0.5,0.3c0.1,0.1-0.1,0.3-0.1,0.4h-0.1h0.1c0,0.1,0.1,0.7,0.1,0.7s0,0.1,0.1,0.1v-0.1
	l0.1-0.1c0,0,0.1,0,0.2-0.1v-0.1c0.1,0,0.2,0,0.4-0.2l-0.1,0.1c0.2-0.1,0.2-0.1,0.4-0.3H-33 M-28.1,18.3
	C-28.1,18.3-28.1,18.4-28.1,18.3C-28.1,18.4-28.1,18.3-28.1,18.3 M-27.8,15.4c0-0.2-0.1-0.5-0.1-0.7c0-0.1-0.1-0.1-0.2-0.2
	c0,0-0.1,0-0.3-0.6c0-0.1,0-0.1-0.1-0.1v0.1h-0.1l-0.1,0.1v0.1c0,0,0,0.1-0.1,0.1h-0.1c-0.1,0-0.1,0-0.1-0.1c0,0-0.1,0.5,0,0.7
	c0.1,0.3-0.2,0.4-0.2,0.7c0,0.2-0.1,0.4-0.1,0.7c0.1,0.1,0.1,0.7,0,0.8c0,0,0,0.1,0.1,0.1v0.1v-0.1V17v0.2l0.1,0.1l0.1,0.1h-0.1
	l0.1,0.2V18c0,0,0.2,0.3,0.3,0.3c0.1,0,0.1-0.2,0.2-0.2V18c0.1,0,0.3-0.2,0.3-0.2s0.2,0,0.2,0.1h0.2C-27.8,18-28,18-28,18h0.1
	l0.1,0.1h-0.1c0,0.1-0.1,0.2-0.2,0.3v0.1c0,0,0,0.1-0.1,0.2v0.1c-0.1,0.4-0.5,1-0.5,1c0.1,0,0.2-0.3,0.3-0.6
	c0.2-0.3,0.3-0.6,0.4-0.9s0.2-0.6,0.2-1c0.1-0.3,0.1-0.7,0.1-1C-27.7,16.1-27.7,15.8-27.8,15.4 M-28.4,13.8c0,0.1,0,0.1,0.1,0.2
	C-28.3,13.9-28.3,13.9-28.4,13.8 M-28.6,13.5C-28.6,13.4-28.6,13.4-28.6,13.5v0.2C-28.5,13.6-28.5,13.6-28.6,13.5 M-28.7,13.3
	C-28.7,13.3-28.7,13.2-28.7,13.3s0.1,0.1,0.1,0.1L-28.7,13.3 M-28.5,13.5C-28.5,13.5-28.6,13.5-28.5,13.5l-0.1-0.1
	c0,0-0.2-0.4-0.3-0.4h-0.3v0.1c0,0,0.1,0.1,0.1,0.2h-0.1c0,0.1-0.1,0-0.1,0h-0.1v0.1c0,0,0.1,0,0.1,0.1c0.1,0.1,0.1,0.3,0.1,0.4v0.2
	h0.1c0,0,0,0.1,0.1,0.1c0,0.1,0.1,0.1,0.1,0.1v-0.1h0.1v-0.1V14l-0.1-0.1v-0.2v-0.1v-0.1l-0.1-0.1v-0.1
	C-28.8,13-28.5,13.5-28.5,13.5S-28.5,13.6-28.5,13.5C-28.5,13.6-28.5,13.6-28.5,13.5c0.1,0.1,0.1,0.2,0.1,0.2l0,0
	C-28.4,13.7-28.5,13.6-28.5,13.5 M-28.9,12.9C-28.9,12.9-28.8,13-28.9,12.9C-28.8,13-28.9,12.9-28.9,12.9 M-28.7,13.1
	c0-0.1-0.1-0.1-0.1-0.2C-28.8,13-28.8,13-28.7,13.1C-28.8,13-28.8,13-28.7,13.1C-28.8,13.1-28.7,13.1-28.7,13.1 M-32.6,12.9
	c-0.1,0-0.1,0-0.1,0.1C-32.7,12.9-32.7,12.9-32.6,12.9 M-39.1,12.5C-39,12.5-39.1,12.5-39.1,12.5C-39.1,12.6-39.1,12.6-39.1,12.5
	C-39.1,12.6-39.1,12.6-39.1,12.5 M-38.9,12.4C-38.9,12.3-38.9,12.3-38.9,12.4l0.1-0.1C-39,12.3-39,12.4-38.9,12.4
	C-39,12.4-39,12.4-38.9,12.4C-39,12.4-39,12.4-38.9,12.4C-39,12.4-39,12.4-38.9,12.4C-39,12.4-39,12.4-38.9,12.4
	C-39,12.4-39,12.4-38.9,12.4C-39,12.4-39,12.4-38.9,12.4 M-38.9,12.2C-38.8,12.1-38.8,12.1-38.9,12.2
	C-38.8,12.1-38.8,12.1-38.9,12.2C-38.8,12.1-38.8,12.1-38.9,12.2C-38.9,12.1-38.9,12.2-38.9,12.2 M-38.8,12.1
	C-38.8,12-38.8,12-38.8,12.1C-38.7,12-38.7,12-38.8,12.1C-38.7,12-38.7,12-38.8,12.1C-38.8,12-38.8,12-38.8,12.1
	C-38.8,12-38.8,12.1-38.8,12.1 M-32.8,13v-0.2c0,0,0.1,0,0-0.1v-0.1h-0.1c-0.1,0-0.1,0.1-0.2,0.1v-0.1c0.1,0,0.2-0.1,0.2-0.1
	c-0.3-0.1-0.3-0.2-0.3-0.2c0-0.1,0-0.3-0.1-0.3c0,0,0,0.1-0.1,0v0.1h0.1c0-0.1-0.1,0-0.1-0.1h-0.1l-0.2-0.2l-0.1,0.1V12
	c0-0.1,0,0,0,0s0-0.1-0.1-0.1c0,0.1,0,0.1-0.1,0.1c0-0.1-0.1,0-0.2,0v-0.1V12c-0.1,0-0.2-0.2-0.2-0.2v-0.1l-0.1-0.1h-0.1
	c-0.1,0-0.1,0-0.2-0.1c0,0-0.1,0,0,0.1v0.2l-0.1,0.1c0,0.1,0.2,0.1,0.1,0.3c0,0.1-0.1,0.4-0.3,0.5L-35,13l0.3-0.4
	c0,0.1-0.1,0.1-0.1,0.2l-0.1,0.1c0,0-0.1,0-0.1-0.1h-0.1v0.1L-32.8,13l-0.1-0.2c0.1,0.1,0.1,0.1,0.1,0 M-32.8,11.3
	C-32.8,11.2-32.8,11.2-32.8,11.3 M-35,11.3L-35,11.3l-0.1-0.1h-0.1l-0.1-0.1c-0.1,0.1-0.1,0.1-0.1,0.2c-0.1,0-0.1,0-0.1,0.1h0.1v0.1
	h0.2C-35,11.3-35,11.3-35,11.3 M-34.5,10.8L-34.5,10.8c-0.2,0-0.2,0.1-0.1,0.1C-34.7,10.9-34.5,11-34.5,10.8"/>
<path class="st7" d="M-32.2,13.4C-32.2,13.4-32.2,13.3-32.2,13.4C-32.2,13.3-32.2,13.3-32.2,13.4L-32.2,13.4l-0.1-0.1l0,0l0.1-0.1
	h-0.1h-0.1h-0.1l-0.1,0.1c0-0.1,0-0.1,0.1-0.2h-0.1c-0.2-0.1-0.2-0.1-0.2,0h-0.1h0.1c0,0-0.1,0-0.1,0.1v0.1h0.4l-0.1,0.1l0.1-0.1
	v0.1L-32.2,13.4C-32.2,13.4-32.2,13.5-32.2,13.4C-32.2,13.5-32.2,13.5-32.2,13.4C-32.2,13.5-32.2,13.4-32.2,13.4 M-30.2,11.8
	c0,0-0.1-0.2-0.2-0.1v0.1h-0.1h0.1v-0.1C-30,11.9-30,11.9-30.2,11.8C-30.2,11.9-30.2,11.9-30.2,11.8 M-30.2,11.7
	C-30.2,11.7-30.4,11.7-30.2,11.7C-30.4,11.7-30.4,11.7-30.2,11.7C-30.4,11.7-30.2,11.7-30.2,11.7 M-30,11.7
	C-30,11.6-30,11.6-30,11.7C-29.9,11.7-29.9,11.7-30,11.7C-29.9,11.7-29.9,11.7-30,11.7C-29.9,11.7-29.9,11.7-30,11.7
	C-29.9,11.7-29.9,11.7-30,11.7C-29.9,11.7-30,11.7-30,11.7 M-30.2,11.4C-30.2,11.5-30.2,11.5-30.2,11.4
	C-30.2,11.5-30.2,11.5-30.2,11.4l0.1,0.1L-30.2,11.4C-30.2,11.5-30.2,11.5-30.2,11.4C-30.2,11.5-30.2,11.5-30.2,11.4 M-32.3,11.4
	C-32.3,11.4-32.5,11.4-32.3,11.4C-32.5,11.4-32.3,11.4-32.3,11.4 M-29.7,12.1l-0.1-0.1L-29.7,12.1l-0.2-0.1l-0.2-0.2
	c-0.2-0.1-0.2-0.2-0.2-0.2l-0.1-0.1h-0.1c0,0,0-0.1-0.1-0.1h0.1l0.1,0.1l0.1,0.1c0,0,0,0.1,0.1,0.1l0.1,0.1l0.1,0.1v0.2L-29.7,12.1
	C-29.7,12.2-29.7,12.2-29.7,12.1C-29.7,12.2-29.7,12.2-29.7,12.1C-29.7,12.2-29.7,12.1-29.7,12.1l-0.1,0.1v0.1h0.1V12.1
	C-29.6,12.2-29.6,12.2-29.7,12.1C-29.6,12.2-29.6,12.2-29.7,12.1C-29.6,12.2-29.6,12.2-29.7,12.1 M-31.8,10.7L-31.8,10.7H-32h-0.1
	h-0.1h-0.1h-0.1h0.1c-0.1,0-0.1-0.1-0.2-0.1h0.3c0.1,0,0.1,0,0.1,0.1H-31.8C-31.8,10.8-31.8,10.8-31.8,10.7
	C-31.8,10.8-31.8,10.8-31.8,10.7C-31.8,10.8-31.8,10.7-31.8,10.7L-31.8,10.7L-31.8,10.7 M-33.2,10.2L-33.2,10.2 M-29.6,11.9
	C-29.6,11.9-29.8,11.8-29.6,11.9C-29.8,11.9-29.6,11.9-29.6,11.9l-0.1-0.1C-29.8,11.8-29.8,11.9-29.6,11.9l-0.1-0.1l-0.1-0.1
	l-0.1-0.1H-30h0.1l0.1,0.1C-29.8,11.7-29.8,11.8-29.6,11.9C-29.8,11.9-29.8,11.9-29.6,11.9C-29.8,11.9-29.8,11.9-29.6,11.9
	C-29.7,11.9-29.8,11.9-29.6,11.9C-29.7,11.9-29.8,11.9-29.6,11.9C-29.8,11.9-29.8,11.9-29.6,11.9C-29.8,11.9-29.8,11.9-29.6,11.9
	C-29.7,12-29.7,12-29.6,11.9C-29.8,11.9-29.8,11.9-29.6,11.9C-29.8,11.9-29.8,11.9-29.6,11.9C-29.8,12-29.7,12-29.6,11.9L-29.6,11.9
	c0,0.1,0,0.1,0.1,0.3l0.1,0.1v0.1l0.1,0.1h0.1l0.1,0.1l0.2,0.2h0.3c-0.1-0.1-0.1-0.2-0.2-0.3C-29.1,12.4-29.4,12.1-29.6,11.9
	 M-31.2,10.7l-0.6-0.3h0.3c0,0,0.1,0,0.1,0.1C-31.3,10.7-31.2,10.7-31.2,10.7C-31.2,10.8-31.2,10.8-31.2,10.7
	c0.1,0.1,0.2,0.1,0.2,0.1s0.1,0,0.1,0.1h0.1l0.1,0.1l0.1,0.1h0.1c0,0,0.1,0,0.1,0.1l0.1,0.1l-0.2-0.2h0.1l0.1,0.1l0.1,0.1l0.1,0.1
	l0.1,0.1l-0.1-0.1l-0.1-0.1l-0.3-0.3C-30.6,11.1-30.9,10.9-31.2,10.7 M-33.4,10.1C-33.4,10.1-33.5,10.1-33.4,10.1
	C-33.5,10.1-33.4,10.1-33.4,10.1 M-33.5,10.1C-33.6,10.1-33.6,10.1-33.5,10.1 M-33.8,10L-33.8,10L-33.8,10 M-33.8,10
	C-34,10-34,10-33.8,10C-34,10-34,10-33.8,10C-34,10-33.8,10-33.8,10 M-34,10L-34,10L-34,10L-34,10 M-34,10C-34.2,10-34.2,10-34,10
	C-34.2,10-34.2,10-34,10C-34.2,10-34.2,10-34,10C-34.2,10-34,10-34,10 M-33.8,10H-34H-33.8 M-34.2,10L-34.2,10 M-32.8,10H-33v0.2
	h0.1c0,0,0.2,0,0.2,0.1L-32.8,10H-33v0.1V10V9.9L-32.8,10l0.1,0.1L-32.8,10L-33,9.9C-33.2,10-32.8,10.1-32.8,10v0.1H-33l-0.1-0.1
	l-0.1-0.1h0.1V10h-0.1h0.1V9.8h0.2C-33,10-32.8,10.1-32.8,10h-0.7l-0.3,0.1V10l0.5-0.1V10h-0.4v0.1l0,0v0.1l0.2-0.1h0.2
	c0,0,0,0.1,0,0h-0.1h-0.1h-0.1h-0.1V10h-0.1h-0.1H-34l0,0c0.5,0,1,0.5,1.4,1.2v-0.1v-0.2v0.3c0,0,0.1,0,0.1,0.1h-0.1h-0.2H-33v-0.2
	l0.5-0.2v0.4h0.2c0,0,0.1,0,0,0h0.1v-0.4h-0.3v0.3h-0.1l-0.1-0.1h0.5h-0.3h-0.2h0.2h-0.3h0.5l-0.5-0.1h0.3v0.1c0,0,0,0.1-0.1,0.1
	l-0.3-0.1V11c0,0,0.1,0,0.1-0.1H-33l0.2,0.3V11l0.1,0.1V11v-0.1h-0.1H-33V11h0.2c0,0,0.1-0.2,0-0.2v-0.1c0,0,0-0.1,0.1,0v0.1v-0.2
	v-0.3C-32.8,10.2-32.8,10-32.8,10v0.2c0,0,0,0.1-0.1,0.1l0.1,0.1h-0.1h0.1V10H-33H-32.8v0.1V10L-32.8,10L-32.8,10v0.2h-0.1l-0.1-0.1
	l-0.1-0.1"/>
<path class="st7" d="M-31.4,20.8l0.1-0.2h-0.1l-0.1-0.2h-0.1l-0.1-0.1c0,0-0.1,0-0.2,0.1c0,0,0.1-0.1,0-0.1l-0.1-0.1
	c-0.2,0.8-0.5,1.5-0.8,2h0.1c0,0,0.1,0,0.1-0.1h0.1l0.1-0.1c0-0.1,0.2-0.1,0.2-0.2l0.2-0.2c0-0.1,0.1-0.1,0.2-0.3c0,0,0.1,0,0.1-0.1
	l0.1-0.1c0.1-0.1,0.1-0.1,0.2-0.1C-31.5,20.8-31.4,20.8-31.4,20.8 M-29,20.3c0.1-0.1,0.1-0.2,0.2-0.3c-0.6,0.9-1.1,1.3-1.3,1.5
	c0.2-0.2,0.4-0.3,0.6-0.5C-29.5,20.9-29.2,20.6-29,20.3 M-32.3,20h-0.2v0.1C-32.5,20.1-32.5,20.1-32.3,20
	C-32.3,20.1-32.3,20.1-32.3,20 M-33.7,18.8C-33.7,18.8-33.7,18.9-33.7,18.8C-33.7,18.9-33.7,18.9-33.7,18.8c0,0.1-0.1,0.1-0.1,0.1
	C-33.7,18.9-33.7,18.9-33.7,18.8C-33.7,18.9-33.7,18.9-33.7,18.8 M-35,17.4c0-0.1-0.2-0.1-0.2-0.1L-35,17.4
	C-35,17.5-35,17.4-35,17.4 M-33.6,17.4c0,0-0.1-0.1-0.2,0v0.1C-33.7,17.4-33.6,17.4-33.6,17.4 M-33.9,17.4c-0.1-0.1-0.2-0.1-0.2-0.1
	h-0.1h-0.1h-0.3h0.1v0.1h-0.3l0.1,0.1h0.3c0,0,0,0.1,0.1,0.1c0-0.1,0-0.1,0.1-0.1h0.1C-34,17.4-34,17.4-33.9,17.4
	C-34,17.4-34,17.4-33.9,17.4 M-34.7,17.1h-0.2c-0.1,0-0.2,0-0.2-0.1c0,0,0-0.1-0.1-0.1h-0.1c-0.1,0-0.1,0-0.2-0.1h-0.2
	c-0.1,0-0.3,0-0.3,0.1h0.1c0.2-0.1,0.2-0.1,0.3-0.1h0.2c0.1,0,0.1,0,0.1,0.1c0.1,0,0.1,0,0.1,0.1c0.1,0,0.1,0,0.2,0.1
	c0,0,0,0.1-0.1,0.1h0.3C-34.8,17.2-34.7,17.2-34.7,17.1 M-34.8,15C-34.8,15-34.8,14.9-34.8,15C-34.8,14.9-34.8,14.9-34.8,15
	L-34.8,15 M-32.8,13.6C-32.8,13.6-33,13.5-32.8,13.6H-33v-0.1h-0.1c0,0,0,0.1-0.1,0.1v0.1C-33.1,13.6-33,13.6-32.8,13.6
	C-33,13.6-32.9,13.6-32.8,13.6 M-39.1,13.3C-39.1,13.2-39.1,13.2-39.1,13.3C-39.1,13.2-39.1,13.2-39.1,13.3v-0.1v-0.1h-0.1
	L-39.1,13.3C-39.2,13.2-39.2,13.2-39.1,13.3C-39.2,13.2-39.2,13.2-39.1,13.3C-39.1,13.2-39.2,13.2-39.1,13.3
	C-39.2,13.2-39.2,13.2-39.1,13.3C-39.2,13.2-39.1,13.3-39.1,13.3 M-32.5,19.8c-0.1-0.1-0.1-0.1-0.1-0.3c0,0-0.4-0.3-0.5-0.2h-0.1
	c-0.1-0.1-0.3-0.1-0.4-0.1h-0.3c0-0.2,0.1-0.2-0.1-0.2h0.3c-0.1,0,0,0-0.1-0.1h-0.1v-0.1h0.1h-0.5c-0.1,0-0.3-0.1-0.4-0.1v-0.1
	l-0.2,0.1c0,0.1,0.1,0.1,0.1,0.2h-0.1c-0.1-0.1-0.1-0.1,0-0.2v-0.1h0.1l-0.3,0.3c0,0,0-0.3-0.2-0.4h-0.3c-0.2,0-0.4-0.3-0.3-0.5
	v-0.2H-36c0-0.1-0.2,0-0.2-0.1h-0.3c0.1-0.1,0.1-0.1,0.1-0.3v-0.1v-0.1V17h0.1c-0.2-0.1-0.3,0-0.4,0h-0.1c0,0.1,0,0-0.1,0v0.3h-0.4
	c-0.3-0.3-0.3-0.3-0.3-0.4c0-0.3,0.1-0.8,0.1-0.8V16h0.1c0.1,0,0.1,0,0.2-0.1v-0.1v0.1c0.1,0,0.2,0.1,0.3,0.1v-0.1l0.1,0.1h0.1
	l-0.1-0.1h0.1l0.1,0.1l-0.1-0.1h-0.1h0.3l0.1,0.1h0.1l0.2,0.1l0.2,0.1c0.1-0.2,0.1-0.2,0.1-0.1v0.2c0,0.1,0.1,0.1,0.1,0.2l0.1-0.3
	V16c0.1,0-0.2-0.3-0.1-0.6c0.1-0.2,0.4-0.2,0.6-0.4v0.1h0.2H-35h0.1l0,0L-35,15h0.1v0.2v-0.1c0,0,0-0.1-0.1-0.1c0,0-0.1,0-0.1-0.1
	h0.2v0.4H-35v-0.2V15c0,0,0,0.2,0.1,0.2V15v-0.1v0.4v-0.5v0.5v-0.4v0.5H-35v-0.2l0.1-0.1V15v0.3c0,0,0-0.1,0,0v-0.1v-0.1
	c0.2-0.4,0.2-0.7,0.2-0.8V14v1h-0.1v-0.4l0.1-0.1c0-0.1,0.1-0.1,0-0.2c0.1,0,0.2-0.1,0.3-0.1h0.3L-34,14h0.3v0.2H-34l-0.1-0.1h0.1
	c0-0.1,0.2-0.1,0.2-0.1H-34l-0.1,0.1v-0.2c0,0,0,0.1,0,0V14v-0.1c0,0,0,0.1,0.1,0.1v0.1v-0.2h0.1c0,0,0.1,0,0.1-0.1v0.4
	c0,0,0-0.2-0.1-0.1V14c0.1,0,0.2-0.1,0.2-0.1h-0.1h-0.4V14h0.2l0.2-0.2h0.1v0.1h0.1l0.1-0.1V14l-0.2-0.1l-0.1-0.1h0.5
	c0.1,0,0.1,0,0.2-0.1h-0.1h-0.1c0,0,0,0.2-0.1,0.2v0.2v-0.2l-0.1-0.1v0.3l-0.3-0.1v-0.4h0.2h-0.1c-0.1,0-0.2,0-0.2-0.1h0.1l0.1-0.1
	h-0.2c0-0.1,0.3-0.1,0.3-0.1c-0.2-0.2-0.6,0.1-0.7,0.3C-34,13-33.6,13-33.2,13h0.3H-39c0,0,0,0.3-0.1,0.4v-0.1h-0.1v0.1
	c0,0.1-0.1,0.2-0.2,0.4c0,0.1,0,0.1-0.2,0.6v0.2c0,0.1,0.1,0.3,0,0.4h0.4c0,0.1-0.7,0.1,0.3,0.2h-1c1,0,0.4,0.6,0.4,0.6h0.1
	c0,0,0.3,0.5,0.5,0.7l0.1-0.1v-0.1c0-0.1-0.1-0.4-0.1-0.4v-0.1c0-0.2-0.1-0.3-0.2-0.5v-0.1h0.1c0,0.8,0,0.8,0.3,1.1v0.1
	c0.1,0.2,0.2,0.3,0.3,0.5v0.2c0.1,0.2,0.6,0.5,0.6,0.5c0.1,0,0.2,0.1,0.3,0.1s0.2-0.1,0.4,0s0.2,0.2,0.4,0.3h0.3v-0.1h0.1
	c0.1,0.1,0.2,0.2,0.3,0.2c0,0,0,0.1,0.1,0.1h0.1c0,0,0.1,0,0.1-0.1l0.1,0.1h-0.2V19h0.2v-0.1l0.1-0.1l-0.2-0.1l-0.2-0.1h0.4
	c0.1,0,0.2,0,0.2,0.1l0.1,0.2c0,0,0,0.2,0.1,0.2V19c0,0-0.1-0.1-0.2-0.1v-0.1c-0.2,0-0.1,0.2-0.2,0.3l-0.1-0.1v0.2
	c0.1,0.1,0.1,0.3,0.1,0.3v0.1h-0.1v0.1c0,0-0.1,0-0.1,0.1v0.1h3.1C-32.7,20-32.5,19.9-32.5,19.8"/>
<linearGradient id="SVGID_8_" gradientUnits="userSpaceOnUse" x1="-34.2" y1="-1621.1439" x2="-34.2" y2="-1636.0759" gradientTransform="matrix(1 0 0 -1 0 -1612.11)">
	<stop  offset="0" style="stop-color:#76A1F0"/>
	<stop  offset="1" style="stop-color:#6B90D5"/>
</linearGradient>
<path class="st8" d="M-34.2,9c-4.2,0-7.5,3.4-7.5,7.5s3.3,7.5,7.5,7.5c4.1,0,7.5-3.3,7.5-7.5C-26.9,12.4-30.1,9-34.2,9z M-28,18.6
	c-0.1,0.3-0.2,0.6-0.4,0.9c-0.2,0.3-0.3,0.6-0.5,0.9s-0.4,0.5-0.6,0.8s-0.5,0.5-0.8,0.6c-0.3,0.2-0.6,0.4-0.9,0.5
	c-0.3,0.2-0.6,0.3-0.9,0.4s-0.7,0.2-1,0.2c-0.4,0.1-0.7,0.1-1.1,0.1c-6.5-0.3-8.4-7.8-4.2-11.4c1.7-1.5,3.5-1.6,4.2-1.6
	c0.4,0,0.7,0,1.1,0.1c0.3,0.1,0.7,0.1,1,0.2c0.3,0.1,0.6,0.2,0.9,0.4s0.6,0.3,0.9,0.5s0.5,0.4,0.8,0.6c0.2,0.2,0.5,0.5,0.6,0.8
	c0.2,0.3,0.4,0.6,0.5,0.9c0.1,0.3,0.3,0.6,0.4,0.9c0.1,0.3,0.2,0.7,0.2,1c0.1,0.3,0.1,0.7,0.1,1.1s0,0.7-0.1,1.1
	C-27.9,17.9-28,18.2-28,18.6z"/>
<path class="st9" d="M19.9,22.5H4.1c-0.4,0-0.7-0.3-0.7-0.7v-20c0-0.4,0.3-0.7,0.7-0.7h11.7V5c0,0.5,0.4,0.8,0.8,0.8h3.9v16
	C20.6,22.2,20.3,22.5,19.9,22.5z"/>
<path class="st9" d="M16.3,4.7V1.1l4.3,4.3H17C16.6,5.4,16.3,5.1,16.3,4.7z"/>
<text transform="matrix(1 0 0 1 7.2056 13.6631)" class="st10 st11 st12">URL</text>
</svg>
